<svg width="158" height="158" viewBox="0 0 158 158" fill="none" xmlns="http://www.w3.org/2000/svg">
<path d="M155.704 77.1957C155.531 77.195 155.36 77.2285 155.201 77.2942C155.041 77.3599 154.896 77.4565 154.774 77.5785C154.652 77.7005 154.556 77.8454 154.49 78.0049C154.424 78.1644 154.391 78.3354 154.392 78.5079C154.392 120.339 120.35 154.37 78.5136 154.37C36.677 154.37 2.63561 120.339 2.63561 78.5341C2.63561 36.7294 36.677 2.64002 78.5136 2.64002C78.8617 2.64002 79.1954 2.50177 79.4416 2.2557C79.6877 2.00963 79.8259 1.67588 79.8259 1.32788C79.8259 0.97988 79.6877 0.646136 79.4416 0.400062C79.1954 0.153988 78.8617 0.0157425 78.5136 0.0157425C35.2282 0.0157425 0.0109863 35.2283 0.0109863 78.5341C0.0109863 121.84 35.2282 157.021 78.5136 157.021C121.799 157.021 157.016 121.787 157.016 78.5341C157.02 78.3596 156.988 78.1862 156.924 78.0239C156.86 77.8617 156.763 77.7139 156.641 77.5893C156.519 77.4646 156.373 77.3656 156.212 77.298C156.051 77.2305 155.878 77.1957 155.704 77.1957Z" fill="#CFD6E2"/>
<path d="M154.308 68.7036C154.12 68.8221 153.957 68.9765 153.829 69.1579C153.701 69.3393 153.61 69.5442 153.561 69.7608C153.512 69.9775 153.506 70.2016 153.543 70.4205C153.581 70.6394 153.662 70.8487 153.78 71.0366C153.899 71.2244 154.053 71.387 154.234 71.5152C154.416 71.6433 154.621 71.7345 154.837 71.7835C155.054 71.8324 155.278 71.8383 155.497 71.8006C155.716 71.763 155.926 71.6826 156.113 71.564C156.395 71.3848 156.617 71.1265 156.753 70.8215C156.888 70.5164 156.93 70.1782 156.874 69.8493C156.818 69.5203 156.666 69.2152 156.438 68.9722C156.209 68.7292 155.913 68.559 155.588 68.4831C155.371 68.433 155.146 68.4266 154.926 68.4645C154.706 68.5023 154.496 68.5836 154.308 68.7036Z" fill="#CFD6E2"/>
<path d="M153.436 62.5103C153.249 62.6272 153.086 62.7802 152.958 62.9604C152.83 63.1406 152.739 63.3444 152.691 63.56C152.634 63.8078 152.634 64.0654 152.69 64.3133C152.747 64.5613 152.859 64.7932 153.018 64.9916C153.177 65.1901 153.379 65.35 153.609 65.4592C153.839 65.5685 154.09 65.6244 154.344 65.6227C154.663 65.6222 154.976 65.5332 155.247 65.3655C155.624 65.1268 155.891 64.7498 155.993 64.3158C156.064 63.9896 156.038 63.6496 155.917 63.3383C155.796 63.027 155.586 62.7583 155.313 62.566C155.04 62.3737 154.716 62.2664 154.382 62.2574C154.048 62.2484 153.719 62.3382 153.436 62.5155V62.5103Z" fill="#CFD6E2"/>
<path d="M152.25 56.8103C152.062 56.9289 151.899 57.0833 151.771 57.2647C151.643 57.4461 151.552 57.651 151.503 57.8676C151.454 58.0842 151.448 58.3084 151.486 58.5273C151.523 58.7462 151.604 58.9555 151.722 59.1433C151.841 59.3312 151.995 59.4938 152.177 59.6219C152.358 59.7501 152.563 59.8413 152.78 59.8903C152.996 59.9392 153.221 59.9451 153.44 59.9074C153.658 59.8698 153.868 59.7894 154.056 59.6708C154.435 59.4314 154.704 59.0511 154.803 58.6136C154.902 58.1761 154.823 57.7171 154.583 57.3378C154.344 56.9585 153.963 56.6898 153.526 56.5909C153.088 56.492 152.629 56.5709 152.25 56.8103Z" fill="#CFD6E2"/>
<path d="M149.914 52.2913C149.841 52.6179 149.866 52.9588 149.987 53.271C150.107 53.5832 150.317 53.8528 150.59 54.0459C150.864 54.2389 151.188 54.3468 151.523 54.3558C151.857 54.3649 152.187 54.2748 152.47 54.0968C152.849 53.8563 153.117 53.4753 153.216 53.0375C153.314 52.5997 153.235 52.1407 152.995 51.7612C152.756 51.3828 152.376 51.115 151.939 51.0166C151.502 50.9181 151.043 50.9972 150.665 51.2364C150.476 51.3543 150.313 51.5081 150.184 51.6891C150.055 51.8702 149.964 52.0748 149.914 52.2913Z" fill="#CFD6E2"/>
<path d="M147.793 48.0243C148.034 48.4016 148.414 48.6685 148.85 48.7668C149.287 48.8652 149.745 48.7869 150.124 48.5491C150.407 48.3706 150.63 48.1122 150.766 47.8067C150.902 47.5012 150.944 47.1623 150.887 46.8328C150.83 46.5033 150.677 46.1981 150.446 45.9558C150.216 45.7135 149.919 45.5449 149.593 45.4715C149.267 45.398 148.926 45.423 148.614 45.5431C148.302 45.6633 148.032 45.8733 147.84 46.1466C147.647 46.4199 147.54 46.7441 147.532 47.0784C147.523 47.4126 147.614 47.7418 147.793 48.0243Z" fill="#CFD6E2"/>
<path d="M146.791 43.4528C147.11 43.4523 147.422 43.3633 147.694 43.1956C148.07 42.9569 148.338 42.58 148.439 42.1459C148.517 41.803 148.487 41.4442 148.353 41.1193C148.218 40.7943 147.986 40.5192 147.688 40.3322C147.39 40.1452 147.041 40.0555 146.69 40.0755C146.339 40.0954 146.002 40.2242 145.727 40.4438C145.453 40.6634 145.253 40.9631 145.156 41.3012C145.059 41.6393 145.07 41.9992 145.187 42.331C145.304 42.6628 145.521 42.95 145.808 43.1529C146.096 43.3557 146.439 43.4642 146.791 43.4633V43.4528Z" fill="#CFD6E2"/>
<path d="M113.678 11.4313C114.014 11.4324 114.342 11.3338 114.622 11.1482C114.901 10.9625 115.119 10.6982 115.249 10.3885C115.378 10.0788 115.412 9.73776 115.347 9.40856C115.282 9.07937 115.121 8.77681 114.884 8.53919C114.647 8.30158 114.345 8.13959 114.016 8.07375C113.687 8.00791 113.346 8.04118 113.036 8.16934C112.726 8.29749 112.461 8.51478 112.274 8.79368C112.088 9.07258 111.988 9.40055 111.988 9.73607C111.988 10.1848 112.166 10.6152 112.483 10.933C112.8 11.2507 113.23 11.43 113.678 11.4313Z" fill="#CFD6E2"/>
<path d="M107.983 8.84381C108.916 8.84381 109.673 8.08716 109.673 7.15378C109.673 6.2204 108.916 5.46374 107.983 5.46374C107.049 5.46374 106.293 6.2204 106.293 7.15378C106.293 8.08716 107.049 8.84381 107.983 8.84381Z" fill="#CFD6E2"/>
<path d="M102.529 6.80213C103.462 6.80213 104.219 6.04547 104.219 5.11209C104.219 4.17871 103.462 3.42206 102.529 3.42206C101.595 3.42206 100.839 4.17871 100.839 5.11209C100.839 6.04547 101.595 6.80213 102.529 6.80213Z" fill="#CFD6E2"/>
<path d="M96.97 5.16457C97.3043 5.16457 97.6311 5.06545 97.909 4.87975C98.187 4.69404 98.4037 4.43009 98.5316 4.12128C98.6595 3.81246 98.693 3.47266 98.6278 3.14483C98.5626 2.81699 98.4016 2.51585 98.1652 2.27949C97.9288 2.04314 97.6276 1.88219 97.2997 1.81698C96.9719 1.75177 96.632 1.78523 96.3232 1.91315C96.0143 2.04106 95.7503 2.25767 95.5646 2.53559C95.3789 2.81352 95.2797 3.14027 95.2797 3.47453C95.2797 3.92276 95.4578 4.35262 95.7748 4.66957C96.0918 4.98651 96.5217 5.16457 96.97 5.16457Z" fill="#CFD6E2"/>
<path d="M91.0278 4.18835C91.9613 4.18835 92.7181 3.43169 92.7181 2.49831C92.7181 1.56493 91.9613 0.808277 91.0278 0.808277C90.0943 0.808277 89.3376 1.56493 89.3376 2.49831C89.3376 3.43169 90.0943 4.18835 91.0278 4.18835Z" fill="#CFD6E2"/>
<path d="M85.2012 3.38007C86.1347 3.38007 86.8914 2.62341 86.8914 1.69003C86.8914 0.756654 86.1347 0 85.2012 0C84.2677 0 83.5109 0.756654 83.5109 1.69003C83.5109 2.62341 84.2677 3.38007 85.2012 3.38007Z" fill="#CFD6E2"/>
<path d="M118.088 19.7503H118.198L126.245 18.3699C126.414 18.338 126.564 18.2409 126.662 18.0995C126.76 17.9581 126.799 17.7838 126.77 17.6141L125.437 9.5576C125.404 9.38804 125.305 9.2382 125.163 9.14011C125.021 9.04203 124.846 9.00348 124.676 9.03275L122.445 9.4159C122.275 9.44656 122.124 9.54341 122.026 9.68513C121.927 9.82686 121.889 10.0019 121.92 10.1717L122.807 15.352L117.642 16.2338C117.473 16.2681 117.324 16.3666 117.226 16.5085C117.128 16.6504 117.089 16.8247 117.117 16.9948L117.5 19.2202C117.527 19.3605 117.599 19.4882 117.705 19.5839C117.811 19.6796 117.945 19.738 118.088 19.7503Z" fill="#CFD6E2"/>
<g filter="url(#filter0_d_137_49)">
<circle cx="78" cy="79" r="55" fill="#318CE7"/>
</g>
<path d="M85.1129 99.69C84.4338 100.973 83.4106 102.048 82.1547 102.798C80.8987 103.548 79.458 103.944 77.9893 103.944C76.5205 103.944 75.0798 103.548 73.8238 102.798C72.5679 102.048 71.5447 100.973 70.8656 99.69C69.29 102.432 66.9238 103.962 63.7559 103.962C60.588 103.962 58.2607 102.382 56.6628 99.6681C55.9965 100.88 55.0412 101.915 53.8791 102.684C52.5488 103.525 51.0055 103.981 49.425 104C49.1133 104 48.9407 103.934 49.0186 103.589C49.0241 103.532 49.0241 103.475 49.0186 103.419C49.0576 103.007 48.9463 102.487 49.1634 102.207C49.3805 101.927 49.9484 102.103 50.3548 102.059C50.7613 102.015 50.9784 101.883 50.9561 101.395C50.906 100.244 50.9561 99.0923 50.9561 97.9407C50.9561 97.5624 50.8893 97.3924 50.4606 97.3924C50.0319 97.3924 49.4139 97.6282 49.1467 97.2992C48.8794 96.9701 49.0799 96.4657 49.0799 96.038C49.0799 94.8097 49.0799 93.5814 49.0799 92.3531C49.0799 91.9199 49.1968 91.8048 49.6366 91.8048C52.7322 91.8048 55.8222 91.8048 58.9177 91.8048C59.3965 91.8048 59.5357 91.6896 59.5134 91.218C59.4745 90.2913 59.5134 89.3646 59.5134 88.4379C59.5134 88.1528 59.5802 88.0047 59.8976 88.0541H60.0089C60.4655 88.0157 61.0667 88.2515 61.334 87.9499C61.6012 87.6483 61.4008 87.1219 61.4008 86.6887C61.4008 83.4589 61.4008 80.2237 61.4008 76.994C61.4097 76.8111 61.3702 76.629 61.2863 76.4656C61.2024 76.3022 61.0769 76.163 60.922 76.0617C59.6965 75.1599 58.6852 74.006 57.9583 72.6803C57.2314 71.3545 56.8065 69.8888 56.713 68.3849C56.6127 67.2005 56.6795 66.016 56.6294 64.689C58.9195 66.5531 61.4839 68.0637 64.2347 69.169C64.2347 68.5549 64.2347 67.9737 64.2347 67.3924C64.2433 67.3099 64.226 67.2267 64.1852 67.1542C64.1444 67.0816 64.082 67.0232 64.0064 66.9866C61.2226 65.3416 59.6582 62.9014 58.7618 59.913C58.205 58.076 57.5425 56.2719 56.9301 54.4295C56.88 54.2924 56.8354 54.1553 56.7575 53.8812C58.116 54.7914 59.3186 55.7126 60.6158 56.4913C63.3368 58.1112 66.3472 59.2037 69.4848 59.7101C69.5866 59.7327 69.6927 59.7266 69.7912 59.6927C69.8896 59.6587 69.9764 59.5983 70.0416 59.5182C72.3874 57.2042 74.7369 54.8938 77.0901 52.5871C77.3072 52.3732 77.2516 52.3074 77.0177 52.1484C75.058 50.8598 75.147 48.3922 77.207 47.279C77.5967 47.0652 77.4909 46.78 77.4742 46.5114C77.4742 46.1275 77.5578 45.963 77.9753 46.0069C78.1292 46.0179 78.2836 46.0179 78.4374 46.0069C79.3338 46.0069 79.3505 46.0069 79.4173 46.8733C79.4173 47.1529 79.6178 47.1968 79.8015 47.301C80.2536 47.5275 80.6344 47.8715 80.9025 48.2956C81.1706 48.7198 81.316 49.208 81.3228 49.7076C81.3297 50.2072 81.1979 50.6991 80.9415 51.1303C80.6851 51.5614 80.314 51.9153 79.8683 52.1539C79.5788 52.3293 79.5843 52.4061 79.7848 52.6309C81.7334 54.764 83.7154 56.8751 85.5861 59.074C85.8025 59.3546 86.101 59.5634 86.4413 59.6722C86.7817 59.781 87.1477 59.7846 87.4902 59.6826C91.5998 59.0063 95.4762 57.3413 98.7756 54.8353C99.182 54.5282 99.6107 54.2485 100.039 53.947C100.145 54.1444 100.039 54.2814 99.9726 54.4295C99.1598 56.8038 98.4026 59.2001 97.5229 61.558C96.7075 63.7567 95.1458 65.6105 93.1023 66.8056C92.9642 66.8635 92.8486 66.9634 92.7725 67.0907C92.6963 67.218 92.6636 67.3661 92.6791 67.513C92.7181 68.0175 92.6791 68.5275 92.6791 69.1087C95.4035 68.012 97.9463 66.5204 100.223 64.6835C100.357 67.8091 100.29 70.7921 98.4304 73.4571C97.7721 74.4323 96.947 75.2876 95.9918 75.985C95.8236 76.0879 95.6874 76.2344 95.598 76.4085C95.5087 76.5826 95.4696 76.7775 95.4852 76.972C95.5075 80.4631 95.5075 83.9598 95.4852 87.4619C95.4852 87.8676 95.5631 88.0102 96.0141 88.0102C96.4651 88.0102 97.0664 87.7909 97.328 88.1089C97.5897 88.427 97.4004 88.9369 97.406 89.3701C97.406 89.9733 97.4338 90.582 97.406 91.1852C97.406 91.6183 97.5006 91.7335 97.9627 91.7335C101.036 91.7335 104.087 91.7335 107.183 91.7335C107.678 91.7335 107.823 91.8377 107.812 92.3422C107.773 93.8556 107.812 95.369 107.812 96.877C107.812 97.217 107.745 97.3485 107.377 97.3376C106.921 97.3376 106.325 97.1182 106.047 97.3979C105.768 97.6775 105.958 98.2972 105.952 98.7633C105.952 99.69 105.952 100.617 105.952 101.543C105.952 101.911 106.091 102.009 106.414 101.982H106.531C106.904 101.982 107.483 101.763 107.611 101.982C107.826 102.482 107.956 103.014 107.995 103.556C108.034 103.781 107.817 103.748 107.673 103.77C106.092 104.007 104.475 103.772 103.031 103.096C101.587 102.419 100.382 101.332 99.5717 99.9751L99.3379 99.5913C98.6729 100.881 97.6604 101.966 96.4113 102.727C95.1622 103.488 93.7246 103.896 92.2559 103.906C90.7872 103.916 89.3439 103.528 88.0841 102.785C86.8242 102.041 85.7963 100.97 85.1129 99.69ZM78.4875 93.6966H52.3202C50.9617 93.6966 50.984 93.6965 50.9617 95.0564C50.9617 95.4896 51.0842 95.6048 51.5184 95.6048C53.957 95.6048 56.3956 95.6048 58.8342 95.6048C59.3909 95.6048 59.5524 95.709 59.5301 96.2738C59.48 97.4527 59.5301 97.4692 58.3331 97.4417C57.9211 97.4417 57.8599 97.513 57.9935 97.9133C58.3757 99.1261 59.1409 100.187 60.1777 100.942C61.2145 101.697 62.4689 102.106 63.7583 102.111C65.0476 102.115 66.3048 101.714 67.3467 100.966C68.3887 100.218 69.1611 99.162 69.5517 97.9517C69.6964 97.535 69.6241 97.4472 69.1842 97.4527C66.9572 97.4527 64.7692 97.4527 62.5588 97.4527C61.3952 97.4527 61.4454 97.4527 61.3841 96.2847C61.3841 95.7364 61.4676 95.5993 62.0522 95.5993C76.2828 95.5993 90.5115 95.5993 104.738 95.5993C105.958 95.5993 105.924 95.5993 105.969 94.393C105.969 93.8446 105.846 93.7075 105.284 93.7075C96.3574 93.7112 87.4253 93.7075 78.4875 93.6966ZM85.5639 80.635C84.3167 80.635 83.0696 80.635 81.828 80.635C81.4049 80.635 81.2713 80.7282 81.2713 81.1833C81.2991 82.9984 81.2713 84.8079 81.2713 86.6229C81.2713 87.1054 81.0597 87.7196 81.366 88.0377C81.6722 88.3557 82.2735 88.1308 82.7467 88.1199C83.1141 88.1199 83.2032 88.2405 83.1977 88.575C83.1977 89.5566 83.1977 90.5381 83.1977 91.5196C83.1977 91.7828 83.2533 91.8816 83.5428 91.8761C84.8846 91.8761 86.232 91.8761 87.5737 91.8761C87.8911 91.8761 87.9579 91.7664 87.9467 91.4812C87.9467 90.8013 87.9467 90.1213 87.9467 89.4414C87.9467 88.1418 87.9468 88.1418 89.283 88.1308H89.3999C89.7228 88.1747 89.823 88.0486 89.823 87.7251C89.823 85.5317 89.823 83.3054 89.823 81.0956C89.823 80.7391 89.7117 80.6569 89.3665 80.6624C88.0971 80.6459 86.8333 80.635 85.5639 80.635ZM71.3667 80.635C70.1195 80.635 68.8669 80.635 67.6197 80.635C67.23 80.635 67.0964 80.7172 67.1019 81.1284C67.1019 82.9983 67.1019 84.8682 67.1019 86.7381C67.1019 87.1713 66.9627 87.7251 67.1743 87.9992C67.3859 88.2734 68.0039 88.0651 68.4382 88.1035H68.5495C68.8947 88.0486 68.9671 88.2131 68.9615 88.5202C68.9615 89.5017 68.9615 90.4887 68.9615 91.4702C68.9615 91.7718 69.0506 91.8541 69.3512 91.8486C70.654 91.8486 71.9624 91.8486 73.2485 91.8486C73.6327 91.8486 73.6883 91.7006 73.6827 91.3825C73.6827 90.4558 73.6827 89.5291 73.6827 88.6024C73.6827 88.224 73.7551 88.0541 74.1838 88.087C74.5068 88.1254 74.8352 88.087 75.1582 88.087C75.4811 88.087 75.6369 87.9718 75.6314 87.6099C75.6314 85.4385 75.6314 83.267 75.6314 81.0956C75.6314 80.7227 75.5367 80.6075 75.1582 80.613C73.8999 80.6514 72.6305 80.635 71.3667 80.635ZM82.151 61.9912C82.9249 62.8795 83.5985 63.6362 84.2666 64.4204C84.5394 64.7329 84.9347 65.018 85.0405 65.38C85.1463 65.7419 85.3245 65.7309 85.5973 65.7309C87.0337 65.7309 87.017 65.7309 87.0003 67.1785C87.0003 67.5076 86.8945 67.5843 86.5771 67.5788C85.2354 67.5788 83.8936 67.5788 82.5463 67.5788H78.9664C79.3561 68.2478 79.7903 68.6097 80.5587 68.5275C81.2875 68.4891 82.0179 68.4891 82.7467 68.5275C84.2165 68.5275 84.2054 68.5275 84.1887 69.9861C84.1887 70.337 84.094 70.4412 83.7377 70.4302C82.9861 70.4302 82.2289 70.4302 81.455 70.4302C81.5711 70.7496 81.7994 71.0175 82.0986 71.1854C82.3978 71.3534 82.7482 71.4103 83.0863 71.346C85.3627 71.2287 87.6186 70.8608 89.8119 70.2493C90.7639 69.9696 90.775 69.9696 90.7639 68.9771C90.7639 68.5275 90.9643 67.9627 90.6637 67.6666C90.363 67.3705 89.823 67.5734 89.3887 67.5898C88.9545 67.6063 88.8932 67.4472 88.8988 67.0415C88.8988 65.7199 88.8988 65.7309 90.2239 65.7144C90.8116 65.7886 91.4086 65.6954 91.9443 65.4458C94.5777 63.8994 95.8415 61.4757 96.5597 58.6079C92.1729 61.0425 87.1815 62.2183 82.151 62.0021V61.9912ZM60.3152 58.6024C60.5824 59.3975 60.7772 60.0446 61.0166 60.6752C61.7447 62.7449 63.2186 64.4795 65.1589 65.55C65.313 65.6585 65.4936 65.7247 65.6822 65.7419C67.6253 65.7419 69.5795 65.7419 71.5003 65.7419C71.6172 65.7419 71.7954 65.8022 71.8288 65.6103C71.9067 65.1003 72.3299 64.8316 72.6249 64.4807C73.2986 63.6746 73.9945 62.8905 74.7573 62.0076C69.7166 62.2194 64.7156 61.0441 60.3152 58.6134V58.6024ZM58.6059 68.4726C58.7226 69.727 59.1122 70.942 59.7482 72.0348C60.3842 73.1277 61.2517 74.0729 62.2916 74.8061C62.5214 74.9699 62.7986 75.0564 63.0822 75.0528H70.5705C71.1718 75.0528 71.7954 75.2173 72.1294 74.4112C72.4159 73.9393 72.7703 73.5108 73.1817 73.1391C67.9939 72.862 62.9695 71.2554 58.6059 68.4781V68.4726ZM98.319 68.4726C93.9547 71.2534 88.9281 72.8621 83.7377 73.1391C84.2105 73.632 84.6442 74.16 85.0349 74.7183C85.1853 74.976 85.2688 75.0583 85.5471 75.0583H93.8984C94.1081 75.0747 94.3175 75.0227 94.4942 74.9102C95.5728 74.1798 96.4747 73.2243 97.1358 72.1117C97.7969 70.999 98.2009 69.7565 98.319 68.4726ZM86.3266 97.4362C86.6252 98.7541 87.3709 99.9324 88.4407 100.777C89.5105 101.621 90.8405 102.081 92.2115 102.081C93.5824 102.081 94.9125 101.621 95.9823 100.777C97.0521 99.9324 97.7978 98.7541 98.0964 97.4362H86.3266ZM72.0793 97.4362C72.3785 98.7216 73.1014 99.8734 74.135 100.712C75.1687 101.55 76.455 102.028 77.7932 102.07C79.1315 102.113 80.4465 101.718 81.5329 100.947C82.6193 100.176 83.4161 99.0729 83.799 97.8092C83.8769 97.5953 83.9103 97.4253 83.554 97.4308C79.7402 97.4253 75.9265 97.4198 72.0793 97.4198V97.4362ZM83.7711 60.1487C83.7711 60.0555 83.7711 60.0117 83.7322 59.9897C82.0322 58.0925 80.3341 56.1952 78.6379 54.2979C78.3873 54.0128 78.276 54.1882 78.0811 54.3527C76.8488 55.5701 75.6147 56.7856 74.3787 57.9992C73.6883 58.6737 72.9868 59.3262 72.1907 60.0884C73.6271 60.1926 74.8854 60.1378 76.1436 60.1542C76.3775 60.1542 76.4888 60.0062 76.6113 59.8691C77.1402 59.2714 77.6747 58.6792 78.1869 58.065C78.3762 57.8457 78.4931 57.8622 78.6657 58.065C79.1835 58.6682 79.7124 59.2659 80.2413 59.8636C80.3527 59.9897 80.4362 60.1487 80.6477 60.1487H83.7711ZM77.9753 67.5843H76.7171C73.3765 67.5843 70.0026 67.5843 66.6454 67.5843C66.239 67.5843 66.0886 67.694 66.1332 68.0888C66.1332 68.5988 66.1332 69.1087 66.1332 69.6187C66.1332 69.8874 66.2279 70.008 66.5007 70.0902C68.9386 70.8098 71.4575 71.2297 74.0001 71.3405C74.3153 71.3676 74.6308 71.2915 74.8976 71.1239C75.1644 70.9564 75.3676 70.7068 75.4755 70.4138H74.156C72.7196 70.4138 72.7363 70.4138 72.7307 69.01C72.7307 68.5933 72.881 68.511 73.2875 68.5165C74.3397 68.5165 75.4031 68.4671 76.4498 68.5165C77.2181 68.5932 77.5689 68.1985 77.9753 67.5843ZM82.8692 65.7199L78.4151 60.6368L73.9611 65.7199H82.8692ZM74.0391 75.0418H82.8413L78.443 69.9971C77.001 71.6366 75.5534 73.2926 74.0781 75.0144L74.0391 75.0418ZM79.4006 84.446V82.0058C79.4006 80.6569 79.4006 80.6733 78.0087 80.6514C77.58 80.6514 77.452 80.7556 77.452 81.1997C77.452 83.0312 77.452 84.8682 77.452 86.6832C77.452 88.1692 77.452 88.1528 78.9385 88.1308C79.3059 88.1308 79.3895 88.0157 79.3839 87.6757C79.4062 86.5736 79.4173 85.4933 79.4173 84.4185L79.4006 84.446ZM91.7215 84.413V85.5975C91.7215 85.9978 91.7215 86.3926 91.7215 86.7874C91.7215 87.1822 91.5768 87.8128 91.7995 88.0322C92.0222 88.2515 92.629 88.0815 93.0633 88.1308C93.4976 88.1802 93.62 87.9718 93.62 87.5825C93.62 85.751 93.62 83.925 93.62 82.099C93.62 80.6349 93.6201 80.6459 92.1447 80.6843C91.8051 80.6843 91.7271 80.7995 91.7327 81.1066C91.7494 82.1649 91.7382 83.278 91.7382 84.3857L91.7215 84.413ZM63.2938 84.413V86.7874C63.2938 88.1747 63.2938 88.1638 64.6912 88.1583C65.0698 88.1583 65.1644 88.0486 65.1644 87.6867C65.1644 85.8004 65.1644 83.9141 65.1644 82.0332C65.1644 80.6514 65.1644 80.6624 63.7392 80.6788C63.3773 80.6788 63.2938 80.7994 63.2993 81.1339C63.3216 82.1703 63.3105 83.267 63.3105 84.3582L63.2938 84.413ZM64.218 91.8925H65.7268C67.1465 91.8925 67.1242 91.8925 67.1187 90.5161C67.1187 90.0994 66.9516 90.0281 66.5619 90.0336C65.3148 90.0336 64.0732 90.0336 62.8261 90.0336C61.2783 90.0336 61.2839 90.0336 61.373 91.5415C61.373 91.8212 61.4843 91.887 61.746 91.887C62.5867 91.8321 63.4107 91.8377 64.2347 91.8377L64.218 91.8925ZM78.4207 91.8925H79.8516C81.3325 91.8925 81.3214 91.8925 81.2824 90.4448C81.2824 90.1103 81.1599 90.0336 80.8481 90.0391C79.5843 90.0391 78.3205 90.0391 77.0567 90.0391C75.5646 90.0391 75.5757 90.0391 75.6147 91.5141C75.6147 91.8157 75.7149 91.898 76.01 91.8925C76.8284 91.8267 77.6301 91.8377 78.4374 91.8377L78.4207 91.8925ZM92.6179 91.8925H94.1211C95.5297 91.8925 95.513 91.8925 95.4963 90.5161C95.4963 90.1487 95.385 90.0281 95.0064 90.0336C93.7426 90.0336 92.4732 90.0336 91.2093 90.0336C89.7618 90.0336 89.7785 90.0336 89.7952 91.4593C89.7952 91.8267 89.9232 91.898 90.2573 91.887C91.059 91.8212 91.844 91.8377 92.6346 91.8377L92.6179 91.8925ZM104.009 101.626V97.7872C104.009 97.524 103.87 97.4802 103.647 97.4802C103.012 97.4802 102.383 97.4802 101.749 97.4802C100.346 97.4802 100.323 97.4802 100.964 98.7852C101.609 100.048 102.697 101.037 104.026 101.571L104.009 101.626ZM52.8547 101.11C54.1537 100.256 55.0827 98.9562 55.4603 97.4637H53.2332C53.0161 97.4637 52.8547 97.4637 52.8547 97.7598C52.8769 98.7907 52.8713 99.8819 52.8713 101.055L52.8547 101.11ZM64.6689 78.8474C66.1777 78.8474 66.1666 78.8473 66.1388 77.4271C66.1388 77.0323 65.9829 76.9501 65.6266 76.961C65.0141 76.961 64.4017 76.9939 63.7893 76.961C63.3717 76.961 63.2826 77.0817 63.2826 77.4655C63.3105 78.7925 63.2938 78.7925 64.6856 78.7925L64.6689 78.8474ZM92.1837 78.8474C93.6535 78.8474 93.6535 78.8474 93.6034 77.3997C93.6006 77.3797 93.6006 77.3594 93.6034 77.3394C93.6479 77.0269 93.4809 76.961 93.2025 76.9665C92.5288 76.9665 91.8607 76.9665 91.187 76.9665C90.8307 76.9665 90.7416 77.0871 90.7361 77.4271C90.7416 78.7925 90.7305 78.7925 92.2003 78.7925L92.1837 78.8474ZM88.8765 77.9645C88.8765 76.9665 88.8765 76.9665 87.8521 76.9665C87.6982 76.9747 87.5439 76.9747 87.39 76.9665C87.0671 76.9391 86.9335 77.0707 86.9613 77.3887C86.9697 77.5385 86.9697 77.6886 86.9613 77.8384C86.9613 78.8473 86.9613 78.8474 87.969 78.8474C88.8932 78.7925 88.8932 78.7925 88.8932 77.9097L88.8765 77.9645ZM85.0739 77.8933C85.0739 76.9665 85.0739 76.9665 84.211 76.9665C83.1921 76.9665 83.1921 76.9665 83.1921 77.9426C83.1921 78.9186 83.1921 78.8583 84.1274 78.8529C85.0628 78.8474 85.0906 78.7925 85.0906 77.8384L85.0739 77.8933ZM68.0206 77.8933C68.0206 78.8693 68.0206 78.8693 68.9392 78.8747C69.8579 78.8802 69.908 78.8748 69.8968 77.9206C69.8968 76.8514 70.0472 76.9994 68.9615 76.994C68.0373 76.9062 68.0373 76.9117 68.0373 77.8165L68.0206 77.8933ZM71.8232 77.9316C71.8232 78.8748 71.8232 78.8747 72.6082 78.8747C73.6828 78.8747 73.6605 78.8747 73.7217 77.7123C73.7217 77.1639 73.6605 76.8623 73.0314 76.9885C72.9555 76.9967 72.879 76.9967 72.8031 76.9885C71.8511 76.9117 71.851 76.9117 71.851 77.8548L71.8232 77.9316ZM77.4687 77.9316C77.4575 77.8021 77.4575 77.6718 77.4687 77.5423C77.5466 77.0707 77.3462 76.8898 76.8785 76.994C76.8025 76.9994 76.7262 76.9994 76.6502 76.994C75.6203 76.994 75.6203 76.9939 75.6203 77.9809C75.6203 78.8802 75.6203 78.8802 76.5556 78.8802C77.491 78.8802 77.4854 78.798 77.4854 77.8713L77.4687 77.9316ZM80.3025 78.8583C81.2713 78.8583 81.2713 78.8583 81.2713 77.9261C81.2601 77.7581 81.2601 77.5896 81.2713 77.4216C81.3103 77.0926 81.2101 76.9172 80.837 76.972C80.7035 76.9802 80.5696 76.9802 80.4362 76.972C79.4062 76.972 79.4062 76.972 79.4062 77.97C79.4284 78.798 79.4285 78.798 80.3193 78.798L80.3025 78.8583ZM79.3728 49.933C79.3671 49.6953 79.2683 49.4691 79.097 49.3015C78.9258 49.1339 78.6955 49.038 78.4541 49.0338C78.2047 49.0377 77.9661 49.1352 77.7872 49.3064C77.6082 49.4775 77.5023 49.7095 77.4909 49.955C77.496 50.0774 77.5254 50.1977 77.5777 50.3089C77.63 50.4202 77.704 50.5201 77.7955 50.6031C77.887 50.6861 77.9943 50.7506 78.1111 50.7928C78.2279 50.8349 78.3521 50.8539 78.4764 50.8488C78.6022 50.8461 78.7261 50.8184 78.8408 50.7674C78.9554 50.7164 79.0584 50.6431 79.1437 50.552C79.2289 50.4609 79.2946 50.3538 79.3369 50.2371C79.3791 50.1203 79.397 49.9964 79.3895 49.8727L79.3728 49.933Z" fill="#F3F7F9"/>
<defs>
<filter id="filter0_d_137_49" x="4.1" y="5.1" width="147.8" height="147.8" filterUnits="userSpaceOnUse" color-interpolation-filters="sRGB">
<feFlood flood-opacity="0" result="BackgroundImageFix"/>
<feColorMatrix in="SourceAlpha" type="matrix" values="0 0 0 0 0 0 0 0 0 0 0 0 0 0 0 0 0 0 127 0" result="hardAlpha"/>
<feMorphology radius="6" operator="dilate" in="SourceAlpha" result="effect1_dropShadow_137_49"/>
<feOffset/>
<feGaussianBlur stdDeviation="6.45"/>
<feComposite in2="hardAlpha" operator="out"/>
<feColorMatrix type="matrix" values="0 0 0 0 0.917647 0 0 0 0 0.0745098 0 0 0 0 0.239216 0 0 0 0.35 0"/>
<feBlend mode="normal" in2="BackgroundImageFix" result="effect1_dropShadow_137_49"/>
<feBlend mode="normal" in="SourceGraphic" in2="effect1_dropShadow_137_49" result="shape"/>
</filter>
</defs>
</svg>
