<svg width="158" height="158" viewBox="0 0 158 158" fill="none" xmlns="http://www.w3.org/2000/svg">
<path d="M155.715 77.1957C155.542 77.195 155.371 77.2285 155.212 77.2942C155.052 77.3599 154.907 77.4565 154.785 77.5785C154.663 77.7005 154.567 77.8454 154.501 78.0049C154.435 78.1644 154.402 78.3354 154.403 78.5079C154.403 120.339 120.361 154.37 78.5246 154.37C36.688 154.37 2.6466 120.339 2.6466 78.5341C2.6466 36.7294 36.688 2.64002 78.5246 2.64002C78.8726 2.64002 79.2064 2.50177 79.4525 2.2557C79.6986 2.00963 79.8369 1.67588 79.8369 1.32788C79.8369 0.97988 79.6986 0.646136 79.4525 0.400062C79.2064 0.153988 78.8726 0.0157425 78.5246 0.0157425C35.2392 0.0157425 0.0219727 35.2283 0.0219727 78.5341C0.0219727 121.84 35.2392 157.021 78.5246 157.021C121.81 157.021 157.027 121.787 157.027 78.5341C157.031 78.3596 156.999 78.1862 156.935 78.0239C156.871 77.8617 156.774 77.7139 156.652 77.5893C156.53 77.4646 156.384 77.3656 156.223 77.298C156.062 77.2305 155.889 77.1957 155.715 77.1957Z" fill="#CFD6E2"/>
<path d="M154.319 68.7036C154.131 68.8221 153.968 68.9765 153.84 69.1579C153.712 69.3393 153.621 69.5442 153.572 69.7608C153.523 69.9775 153.517 70.2016 153.554 70.4205C153.592 70.6394 153.673 70.8487 153.791 71.0366C153.91 71.2244 154.064 71.387 154.245 71.5152C154.427 71.6433 154.632 71.7345 154.848 71.7835C155.065 71.8324 155.289 71.8383 155.508 71.8006C155.727 71.763 155.937 71.6826 156.124 71.564C156.406 71.3848 156.628 71.1265 156.764 70.8215C156.899 70.5164 156.941 70.1782 156.885 69.8493C156.829 69.5203 156.677 69.2152 156.449 68.9722C156.22 68.7292 155.924 68.559 155.599 68.4831C155.382 68.433 155.157 68.4266 154.937 68.4645C154.717 68.5023 154.507 68.5836 154.319 68.7036Z" fill="#CFD6E2"/>
<path d="M153.447 62.5103C153.26 62.6272 153.097 62.7802 152.969 62.9604C152.841 63.1406 152.75 63.3444 152.702 63.56C152.645 63.8078 152.645 64.0654 152.701 64.3133C152.758 64.5613 152.87 64.7932 153.029 64.9916C153.188 65.1901 153.39 65.35 153.62 65.4592C153.85 65.5685 154.101 65.6244 154.355 65.6227C154.674 65.6222 154.987 65.5332 155.258 65.3655C155.635 65.1268 155.902 64.7498 156.004 64.3158C156.075 63.9896 156.049 63.6496 155.928 63.3383C155.807 63.027 155.597 62.7583 155.324 62.566C155.051 62.3737 154.727 62.2664 154.393 62.2574C154.059 62.2484 153.73 62.3382 153.447 62.5155V62.5103Z" fill="#CFD6E2"/>
<path d="M152.261 56.8103C152.073 56.9289 151.91 57.0833 151.782 57.2647C151.654 57.4461 151.563 57.651 151.514 57.8676C151.465 58.0842 151.459 58.3084 151.497 58.5273C151.534 58.7462 151.615 58.9555 151.733 59.1433C151.852 59.3312 152.006 59.4938 152.188 59.6219C152.369 59.7501 152.574 59.8413 152.791 59.8903C153.007 59.9392 153.232 59.9451 153.451 59.9074C153.669 59.8698 153.879 59.7894 154.067 59.6708C154.446 59.4314 154.715 59.0511 154.814 58.6136C154.913 58.1761 154.834 57.7171 154.594 57.3378C154.355 56.9585 153.974 56.6898 153.537 56.5909C153.099 56.492 152.64 56.5709 152.261 56.8103Z" fill="#CFD6E2"/>
<path d="M149.925 52.2913C149.852 52.6179 149.877 52.9588 149.998 53.271C150.118 53.5832 150.328 53.8528 150.601 54.0459C150.875 54.2389 151.199 54.3468 151.534 54.3558C151.868 54.3649 152.198 54.2748 152.481 54.0968C152.86 53.8563 153.128 53.4753 153.227 53.0375C153.325 52.5997 153.246 52.1407 153.006 51.7612C152.767 51.3828 152.387 51.115 151.95 51.0166C151.513 50.9181 151.054 50.9972 150.676 51.2364C150.487 51.3543 150.324 51.5081 150.195 51.6891C150.066 51.8702 149.975 52.0748 149.925 52.2913Z" fill="#CFD6E2"/>
<path d="M147.804 48.0243C148.045 48.4016 148.425 48.6685 148.861 48.7668C149.298 48.8652 149.756 48.7869 150.135 48.5491C150.418 48.3706 150.641 48.1122 150.777 47.8067C150.913 47.5012 150.955 47.1623 150.898 46.8328C150.841 46.5033 150.688 46.1981 150.457 45.9558C150.227 45.7135 149.93 45.5449 149.604 45.4715C149.278 45.398 148.937 45.423 148.625 45.5431C148.313 45.6633 148.043 45.8733 147.851 46.1466C147.658 46.4199 147.551 46.7441 147.543 47.0784C147.534 47.4126 147.625 47.7418 147.804 48.0243Z" fill="#CFD6E2"/>
<path d="M146.802 43.4528C147.121 43.4523 147.433 43.3633 147.705 43.1956C148.081 42.9569 148.349 42.58 148.45 42.1459C148.528 41.803 148.498 41.4442 148.364 41.1193C148.229 40.7943 147.997 40.5192 147.699 40.3322C147.401 40.1452 147.052 40.0555 146.701 40.0755C146.35 40.0954 146.013 40.2242 145.738 40.4438C145.464 40.6634 145.264 40.9631 145.167 41.3012C145.07 41.6393 145.081 41.9992 145.198 42.331C145.315 42.6628 145.532 42.95 145.819 43.1529C146.107 43.3557 146.45 43.4642 146.802 43.4633V43.4528Z" fill="#CFD6E2"/>
<path d="M113.689 11.4313C114.025 11.4324 114.353 11.3338 114.633 11.1482C114.912 10.9625 115.13 10.6982 115.26 10.3885C115.389 10.0788 115.423 9.73776 115.358 9.40856C115.293 9.07937 115.132 8.77681 114.895 8.53919C114.658 8.30158 114.356 8.13959 114.027 8.07375C113.698 8.00791 113.357 8.04118 113.047 8.16934C112.737 8.29749 112.472 8.51478 112.285 8.79368C112.099 9.07258 111.999 9.40055 111.999 9.73607C111.999 10.1848 112.177 10.6152 112.494 10.933C112.811 11.2507 113.241 11.43 113.689 11.4313Z" fill="#CFD6E2"/>
<path d="M107.994 8.84381C108.927 8.84381 109.684 8.08716 109.684 7.15378C109.684 6.2204 108.927 5.46374 107.994 5.46374C107.06 5.46374 106.304 6.2204 106.304 7.15378C106.304 8.08716 107.06 8.84381 107.994 8.84381Z" fill="#CFD6E2"/>
<path d="M102.54 6.80213C103.473 6.80213 104.23 6.04547 104.23 5.11209C104.23 4.17871 103.473 3.42206 102.54 3.42206C101.606 3.42206 100.85 4.17871 100.85 5.11209C100.85 6.04547 101.606 6.80213 102.54 6.80213Z" fill="#CFD6E2"/>
<path d="M96.981 5.16457C97.3153 5.16457 97.6421 5.06545 97.92 4.87975C98.198 4.69404 98.4146 4.43009 98.5426 4.12128C98.6705 3.81246 98.704 3.47266 98.6388 3.14483C98.5735 2.81699 98.4126 2.51585 98.1762 2.27949C97.9398 2.04314 97.6386 1.88219 97.3107 1.81698C96.9828 1.75177 96.643 1.78523 96.3341 1.91315C96.0253 2.04106 95.7613 2.25767 95.5756 2.53559C95.3899 2.81352 95.2907 3.14027 95.2907 3.47453C95.2907 3.92276 95.4688 4.35262 95.7858 4.66957C96.1028 4.98651 96.5327 5.16457 96.981 5.16457Z" fill="#CFD6E2"/>
<path d="M91.0388 4.18835C91.9723 4.18835 92.7291 3.43169 92.7291 2.49831C92.7291 1.56493 91.9723 0.808277 91.0388 0.808277C90.1053 0.808277 89.3486 1.56493 89.3486 2.49831C89.3486 3.43169 90.1053 4.18835 91.0388 4.18835Z" fill="#CFD6E2"/>
<path d="M85.2122 3.38007C86.1457 3.38007 86.9024 2.62341 86.9024 1.69003C86.9024 0.756654 86.1457 0 85.2122 0C84.2786 0 83.5219 0.756654 83.5219 1.69003C83.5219 2.62341 84.2786 3.38007 85.2122 3.38007Z" fill="#CFD6E2"/>
<path d="M118.099 19.7503H118.209L126.256 18.3699C126.425 18.338 126.575 18.2409 126.673 18.0995C126.771 17.9581 126.81 17.7838 126.781 17.6141L125.448 9.5576C125.415 9.38804 125.316 9.2382 125.174 9.14011C125.032 9.04203 124.857 9.00348 124.687 9.03275L122.456 9.4159C122.286 9.44656 122.135 9.54341 122.037 9.68513C121.938 9.82686 121.9 10.0019 121.931 10.1717L122.818 15.352L117.653 16.2338C117.484 16.2681 117.335 16.3666 117.237 16.5085C117.139 16.6504 117.1 16.8247 117.128 16.9948L117.511 19.2202C117.538 19.3605 117.61 19.4882 117.716 19.5839C117.822 19.6796 117.956 19.738 118.099 19.7503Z" fill="#CFD6E2"/>
<g filter="url(#filter0_d_137_51)">
<circle cx="78" cy="79" r="55" fill="#318CE7"/>
</g>
<path d="M48.0039 83.053C48.0039 75.5261 48.0039 68.001 48.0039 60.4779C47.9828 60.1997 48.0479 59.9217 48.1903 59.6819C48.3328 59.442 48.5456 59.2519 48.7999 59.1374C53.3857 56.6546 57.964 54.1587 62.5348 51.6497L70.8093 47.1628C71.0021 47.0528 71.2209 46.9966 71.4428 47.0002H85.5588C85.7824 46.9975 86.0028 47.0536 86.1979 47.1628L99.5964 54.4541C102.461 56.0189 105.326 57.5894 108.207 59.143C108.457 59.2549 108.666 59.4409 108.806 59.6757C108.947 59.9104 109.011 60.1826 108.992 60.4555C108.992 75.5504 108.992 90.6416 108.992 105.729C109.011 105.897 108.995 106.068 108.944 106.229C108.893 106.391 108.808 106.539 108.695 106.666C108.598 106.764 108.481 106.841 108.353 106.893C108.225 106.945 108.088 106.971 107.949 106.969C106.027 106.969 104.098 106.969 102.175 106.969C101.912 106.969 101.822 106.879 101.833 106.621C101.833 106.155 101.833 105.684 101.833 105.224C101.833 104.949 101.929 104.882 102.181 104.882C103.622 104.882 105.062 104.882 106.497 104.882C106.912 104.882 106.912 104.882 106.912 104.456C106.912 90.1836 106.912 75.9075 106.912 61.6277C106.912 61.3248 106.839 61.2295 106.526 61.2295C102.743 61.2295 98.9555 61.2295 95.162 61.2295C94.8369 61.2295 94.7584 61.3248 94.7584 61.6445C94.7584 67.1037 94.7584 72.5647 94.7584 78.0276C94.7584 78.5099 94.7584 78.5099 94.2763 78.5099C93.7941 78.5099 93.469 78.5099 93.071 78.5099C92.6729 78.5099 92.6785 78.409 92.6785 78.1061C92.6785 75.2288 92.6785 72.3516 92.6785 69.4743C92.6785 66.7092 92.6785 63.9497 92.6785 61.1846C92.6891 61.0689 92.6634 60.9528 92.6052 60.8524C92.5469 60.7519 92.459 60.672 92.3534 60.6237L79.4258 53.5792C76.847 52.1695 74.2664 50.758 71.6839 49.3446C71.5929 49.2854 71.4868 49.254 71.3783 49.254C71.2699 49.254 71.1638 49.2854 71.0728 49.3446C67.455 51.3226 63.8354 53.2988 60.2139 55.273C57.0072 57.0229 53.8118 58.7785 50.5995 60.5059C50.4198 60.5721 50.2672 60.6962 50.1657 60.8587C50.0642 61.0211 50.0196 61.2127 50.0389 61.4033C50.0389 75.6495 50.0389 89.8957 50.0389 104.142C50.0389 104.299 50.0389 104.462 50.0389 104.619C50.0389 104.776 50.1006 104.865 50.2799 104.865H51.7712C51.9674 104.865 52.0346 104.781 52.0234 104.596C52.0122 104.411 52.0234 104.215 52.0234 104.035V63.3944C52.0234 62.5756 52.399 62.1998 53.2287 62.1998H89.4046C90.3016 62.1998 90.6604 62.5587 90.6604 63.4505V82.0883C90.6604 82.565 90.6604 82.565 90.1727 82.565C89.6849 82.565 89.3654 82.565 88.9673 82.565C88.5693 82.565 88.5749 82.4641 88.5749 82.1668C88.5749 80.4001 88.5749 78.6277 88.5749 76.861C88.5749 76.5357 88.474 76.4571 88.1601 76.4571C76.948 76.4571 65.7246 76.4571 54.4901 76.4571C54.1706 76.4571 54.0753 76.5357 54.0753 76.8666C54.0753 86.0724 54.0753 95.2801 54.0753 104.49C54.0753 104.798 54.1705 104.893 54.4733 104.877C54.8859 104.854 55.2995 104.854 55.7122 104.877C55.9869 104.877 56.0766 104.804 56.0766 104.518C56.0766 102.79 56.0766 101.068 56.0766 99.3407V81.7462C56.0766 80.8712 56.4354 80.5123 57.3044 80.5123H71.1737C71.9922 80.5123 72.3678 80.888 72.3678 81.7181V104.422C72.3678 104.893 72.3678 104.893 72.8555 104.899H73.1078C73.3152 104.899 73.3881 104.978 73.3825 105.179C73.3825 105.667 73.3825 106.155 73.3825 106.638C73.3825 106.907 73.2816 106.98 73.0293 106.98C71.7624 106.98 70.4898 106.98 69.2228 106.98H49.2596C48.3683 106.98 48.0039 106.621 48.0039 105.729V83.053ZM75.6249 49.1146L75.7258 49.1819L93.7101 58.9972C93.9204 59.1154 94.1584 59.1755 94.3996 59.1711H103.857L102.327 58.3298L85.6373 49.2156C85.4366 49.0988 85.208 49.0387 84.9758 49.0417H75.6249V49.1146ZM71.3755 66.283H81.5954C83.8378 66.283 86.0354 66.283 88.2554 66.283C88.5301 66.283 88.6366 66.21 88.6198 65.924C88.6198 65.5426 88.6198 65.1612 88.6198 64.8022C88.6198 64.3087 88.6198 64.3143 88.1208 64.3143H54.4845C54.1986 64.3143 54.0865 64.3815 54.1033 64.6844C54.1033 65.0714 54.1033 65.4641 54.1033 65.8567C54.1033 66.2493 54.1033 66.3053 54.5574 66.3053L71.3755 66.283ZM88.2554 70.3437C88.5301 70.3437 88.6366 70.2764 88.6198 69.9903C88.6198 69.5977 88.6198 69.205 88.6198 68.818C88.6198 68.431 88.6198 68.3525 88.1545 68.3525H64.3567C61.0772 68.3525 57.7977 68.3525 54.5181 68.3525C54.2322 68.3525 54.1201 68.4255 54.1369 68.7283C54.1369 69.1154 54.1369 69.5079 54.1369 69.9006C54.1369 70.2932 54.1369 70.3437 54.591 70.3437H88.2554ZM88.2497 74.41C88.502 74.41 88.6534 74.4099 88.631 74.0734C88.6086 73.7369 88.631 73.2882 88.631 72.8956C88.631 72.503 88.631 72.4189 88.1488 72.4189H54.5125C54.2771 72.4189 54.1257 72.4469 54.1425 72.7441C54.1425 73.1536 54.1425 73.5687 54.1425 73.9781C54.1425 74.3875 54.1425 74.41 54.5798 74.41H88.2497ZM58.2125 85.5769C58.2125 86.4967 58.2125 87.4166 58.2125 88.342C58.2125 88.5552 58.2798 88.6393 58.504 88.6393H63.9643C64.1998 88.6393 64.2727 88.5552 64.2671 88.3252C64.2671 86.5136 64.2671 84.7076 64.2671 82.896C64.2671 82.666 64.2054 82.5763 63.9643 82.5819C62.1517 82.5819 60.3428 82.5819 58.5377 82.5819C58.2798 82.5819 58.2069 82.6716 58.2125 82.9184C58.2125 83.799 58.2069 84.6907 58.2069 85.5769H58.2125ZM58.2125 93.7376C58.2125 94.6462 58.2125 95.5605 58.2125 96.4691C58.2125 96.6822 58.2798 96.7664 58.504 96.7664H63.9643C64.1998 96.7664 64.2727 96.6822 64.2671 96.4522C64.2671 94.6406 64.2671 92.8346 64.2671 91.023C64.2671 90.7931 64.1998 90.7089 63.9643 90.7089H58.5377C58.2798 90.7089 58.2125 90.793 58.2125 91.0398C58.2125 91.9372 58.2069 92.8402 58.2069 93.7376H58.2125ZM58.2125 101.865C58.2125 102.768 58.2125 103.665 58.2125 104.562C58.2125 104.809 58.2798 104.899 58.5377 104.899C60.3428 104.899 62.1517 104.899 63.9643 104.899C64.1998 104.899 64.2727 104.82 64.2671 104.585C64.2671 102.779 64.2671 100.969 64.2671 99.1557C64.2671 98.9313 64.2054 98.8416 63.9643 98.8416C62.1536 98.8416 60.3484 98.8416 58.5377 98.8416C58.2854 98.8416 58.2125 98.9257 58.2125 99.1725C58.2125 100.064 58.2069 100.967 58.2069 101.865H58.2125ZM70.3552 85.5994C70.3552 84.6908 70.3552 83.7765 70.3552 82.8679C70.3552 82.6492 70.2936 82.565 70.0637 82.5706H66.6384C66.3974 82.5706 66.3301 82.6548 66.3301 82.8848C66.3301 84.6908 66.3301 86.5005 66.3301 88.314C66.3301 88.5439 66.3917 88.6281 66.6328 88.6281C67.754 88.6281 68.8864 88.6281 70.0301 88.6281C70.2879 88.6281 70.3552 88.544 70.3496 88.2972C70.3384 87.411 70.3496 86.508 70.3496 85.6106L70.3552 85.5994ZM70.3552 93.7489C70.3552 92.8402 70.3552 91.9316 70.3552 91.023C70.3552 90.7706 70.2655 90.6921 70.0189 90.6977C68.8977 90.6977 67.7765 90.6977 66.6552 90.6977C66.4142 90.6977 66.3245 90.765 66.3245 91.023C66.3245 92.829 66.3245 94.6406 66.3245 96.4466C66.3245 96.6878 66.4086 96.7551 66.644 96.7551C67.7652 96.7551 68.8864 96.7551 70.0357 96.7551C70.3048 96.7551 70.3552 96.6542 70.3496 96.4186C70.344 95.5381 70.3496 94.6463 70.3496 93.7601L70.3552 93.7489ZM70.3552 101.876C70.3552 100.979 70.3552 100.081 70.3552 99.1781C70.3552 98.9313 70.3048 98.8191 70.0245 98.8247C68.9033 98.8247 67.7821 98.8247 66.6609 98.8247C66.4198 98.8247 66.3301 98.8921 66.3301 99.1501C66.3301 100.945 66.3301 102.743 66.3301 104.546C66.3301 104.809 66.4198 104.888 66.6777 104.888C67.7989 104.888 68.9107 104.888 70.0133 104.888C70.2711 104.888 70.3608 104.815 70.3608 104.546C70.3384 103.665 70.3496 102.779 70.3496 101.887L70.3552 101.876Z" fill="#F3F7F9"/>
<path d="M86.9996 84.5505H91.3779C91.4836 84.5609 91.5902 84.5448 91.688 84.5037C91.7859 84.4626 91.872 84.3977 91.9385 84.3149C92.8131 83.2941 93.7045 82.2902 94.5846 81.275C94.7969 81.017 95.0653 80.811 95.3695 80.673C95.6737 80.5349 96.0055 80.4684 96.3393 80.4786C98.094 80.4786 99.8487 80.4786 101.609 80.4786C102.014 80.4559 102.416 80.5591 102.761 80.7739C103.105 80.9888 103.374 81.3049 103.532 81.6789C103.706 82.0459 103.765 82.4576 103.698 82.8587C103.632 83.2597 103.445 83.6309 103.162 83.9223C101.454 85.8854 99.7403 87.8447 98.0211 89.8003C97.9513 89.8752 97.8974 89.9636 97.8627 90.06C97.828 90.1564 97.8133 90.2589 97.8193 90.3611C97.8193 92.4252 97.8193 94.4892 97.8193 96.5307C97.8096 96.6326 97.8341 96.7348 97.8889 96.8211C97.9437 96.9074 98.0258 96.973 98.122 97.0075C98.6547 97.2523 99.1032 97.6491 99.4114 98.148C99.7195 98.6469 99.8736 99.2257 99.8543 99.8118C99.8655 100.034 99.8655 100.257 99.8543 100.479C99.8543 100.743 99.944 100.799 100.185 100.799C100.869 100.799 100.869 100.799 100.869 101.489C100.869 101.82 100.869 102.145 100.869 102.476C100.869 102.807 100.796 102.914 100.482 102.874C100.336 102.874 100.185 102.874 100.039 102.874C99.7702 102.874 99.7197 102.942 99.7758 103.2C99.9179 103.812 99.8671 104.454 99.6302 105.036C99.3933 105.619 98.982 106.113 98.4528 106.453C97.9442 106.785 97.3486 106.959 96.7413 106.952C96.1339 106.946 95.5421 106.76 95.0405 106.417C94.539 106.074 94.1502 105.591 93.9234 105.027C93.6966 104.463 93.6418 103.845 93.7661 103.25C93.8446 102.88 93.8446 102.88 93.4746 102.874H89.8755C89.6176 102.874 89.5504 102.925 89.6121 103.194C89.7104 103.599 89.7255 104.02 89.6565 104.431C89.5874 104.842 89.4356 105.235 89.2103 105.586C88.985 105.937 88.6908 106.238 88.3456 106.471C88.0004 106.705 87.6114 106.866 87.2022 106.945C86.793 107.023 86.372 107.018 85.9649 106.929C85.5578 106.84 85.1729 106.67 84.8337 106.427C84.4945 106.185 84.2079 105.877 83.9915 105.52C83.775 105.164 83.6331 104.768 83.5743 104.355C83.4986 103.947 83.5158 103.527 83.6248 103.127C83.6752 102.947 83.6248 102.874 83.4398 102.874C82.8455 102.874 82.2569 102.874 81.6626 102.874C81.3823 102.874 81.4608 103.031 81.4889 103.188C81.5914 103.635 81.5928 104.099 81.4931 104.547C81.3934 104.994 81.195 105.414 80.9125 105.775C80.6299 106.136 80.2704 106.43 79.86 106.634C79.4497 106.838 78.9989 106.948 78.5407 106.956C78.0824 106.963 77.6282 106.869 77.2113 106.678C76.7943 106.488 76.4252 106.207 76.1307 105.855C75.8362 105.504 75.6239 105.091 75.5093 104.647C75.3946 104.203 75.3805 103.739 75.468 103.289C75.552 102.874 75.5521 102.874 75.1316 102.874C74.4028 102.874 74.4028 102.874 74.4028 102.156C74.4028 101.797 74.4028 101.438 74.4028 101.079C74.4028 100.877 74.4757 100.805 74.6831 100.799C75.4231 100.765 75.4175 100.76 75.4175 100.003C75.4175 97.9498 75.4175 95.8933 75.4175 93.833C75.3931 93.6744 75.4061 93.5123 75.4556 93.3597C75.5051 93.2072 75.5897 93.0683 75.7025 92.9544C75.8154 92.8404 75.9533 92.7544 76.1054 92.7034C76.2574 92.6524 76.4193 92.6378 76.578 92.6607C78.0916 92.6607 79.6052 92.6607 81.1189 92.6607C81.4216 92.6607 81.5169 92.5822 81.5113 92.2737C81.5113 90.0807 81.5113 87.8877 81.5113 85.7003C81.4879 85.5415 81.5019 85.3793 81.5521 85.2268C81.6023 85.0743 81.6874 84.9356 81.8006 84.8218C81.9139 84.708 82.0521 84.6221 82.2043 84.5711C82.3565 84.5201 82.5184 84.5054 82.6773 84.5281L86.9996 84.5505ZM86.652 92.6776H89.3486C89.5616 92.6776 89.6457 92.6158 89.6457 92.3915C89.6457 90.5687 89.6457 88.7514 89.6457 86.9286C89.6457 86.6874 89.5616 86.6201 89.3318 86.6201C87.521 86.6201 85.7158 86.6201 83.9051 86.6201C83.6752 86.6201 83.5911 86.6874 83.5911 86.9286C83.5911 88.7402 83.5911 90.5463 83.5911 92.3579C83.5911 92.6103 83.6752 92.6832 83.9219 92.6832C84.8301 92.6944 85.7439 92.7 86.652 92.7V92.6776ZM83.5519 97.8039C83.5519 96.9009 83.5519 96.0036 83.5519 95.1006C83.5519 94.8538 83.5014 94.7472 83.2211 94.7472C81.4216 94.7472 79.6277 94.7472 77.8281 94.7472C77.5815 94.7472 77.4973 94.8257 77.4973 95.0725C77.4973 96.8748 77.4973 98.6752 77.4973 100.474C77.4973 100.743 77.5926 100.81 77.8449 100.81C79.6351 100.81 81.4235 100.81 83.2099 100.81C83.4678 100.81 83.5575 100.737 83.5575 100.468C83.5407 99.6043 83.5519 98.7126 83.5519 97.8264V97.8039ZM91.7199 89.6544C91.7199 90.5631 91.7199 91.4717 91.7199 92.3803C91.7199 92.599 91.7928 92.6832 92.0114 92.6776C93.1551 92.6776 94.2987 92.6776 95.4423 92.6776C95.6834 92.6776 95.745 92.5878 95.745 92.3579C95.745 90.5519 95.745 88.7421 95.745 86.9286C95.745 86.6987 95.6778 86.6146 95.4367 86.6146C94.3155 86.6146 93.1943 86.6146 92.0731 86.6146C91.8096 86.6146 91.748 86.7043 91.748 86.9511C91.7255 87.8765 91.7199 88.7739 91.7199 89.6769V89.6544ZM85.6261 97.7535C85.6261 98.6565 85.6261 99.5538 85.6261 100.451C85.6261 100.698 85.6766 100.816 85.9569 100.81C87.0781 100.81 88.1993 100.81 89.3205 100.81C89.5672 100.81 89.6569 100.737 89.6513 100.485C89.6513 98.6733 89.6513 96.8673 89.6513 95.0556C89.6513 94.8145 89.5672 94.7472 89.3373 94.7472C88.2161 94.7472 87.0949 94.7472 85.9401 94.7472C85.6766 94.7472 85.6261 94.8538 85.6261 95.0893C85.6317 95.9979 85.6261 96.8897 85.6261 97.7759V97.7535ZM93.7549 94.7528H92.0114C91.8264 94.7528 91.7143 94.7864 91.7143 95.0108C91.7143 96.8617 91.7143 98.7126 91.7143 100.563C91.7143 100.743 91.7872 100.81 91.961 100.805H92.7851C93.6989 100.805 93.6989 100.805 93.6989 99.9016C93.6711 99.2944 93.8283 98.6932 94.1497 98.1774C94.471 97.6616 94.9414 97.2556 95.4984 97.0131C95.5722 96.9883 95.6354 96.9394 95.6781 96.8743C95.7208 96.8092 95.7404 96.7317 95.7339 96.6541C95.7339 96.1269 95.7339 95.5941 95.7339 95.0669C95.7339 94.8033 95.6385 94.7471 95.3975 94.7528C94.8537 94.7864 94.3043 94.7752 93.7549 94.7752V94.7528ZM94.5566 84.4888C94.607 84.5225 94.6239 84.5449 94.6407 84.5449H96.6028C96.7661 84.5182 96.9335 84.5305 97.0911 84.5809C97.2487 84.6313 97.3922 84.7184 97.5098 84.8349C97.6273 84.9515 97.7157 85.0942 97.7675 85.2514C97.8194 85.4086 97.8333 85.5759 97.8081 85.7396V86.794H97.8866L101.542 82.6043H96.4514C96.404 82.5964 96.3553 82.5999 96.3095 82.6145C96.2637 82.6291 96.222 82.6545 96.1879 82.6884L94.5566 84.4888ZM96.7486 100.805H97.539C97.6735 100.805 97.7689 100.765 97.7632 100.608C97.7913 100.295 97.7913 99.9795 97.7632 99.666C97.728 99.4354 97.6114 99.2251 97.4345 99.0732C97.2576 98.9212 97.0321 98.8376 96.799 98.8376C96.5658 98.8376 96.3404 98.9212 96.1635 99.0732C95.9866 99.2251 95.87 99.4354 95.8348 99.666C95.7946 99.9916 95.7852 100.32 95.8067 100.648C95.8067 100.805 95.9189 100.827 96.0478 100.827L96.7486 100.805ZM78.4784 104.865C78.608 104.867 78.7366 104.843 78.857 104.796C78.9775 104.748 79.0873 104.676 79.1802 104.586C79.2731 104.496 79.3473 104.388 79.3986 104.269C79.4499 104.15 79.4773 104.022 79.4791 103.892C79.4809 103.763 79.4572 103.634 79.4093 103.513C79.3615 103.393 79.2904 103.283 79.2 103.19C79.1097 103.097 79.002 103.023 78.8829 102.972C78.7639 102.92 78.636 102.893 78.5064 102.891C78.245 102.895 77.9953 103 77.8094 103.184C77.6235 103.368 77.5158 103.617 77.5086 103.878C77.515 104.137 77.6182 104.384 77.7976 104.571C77.9771 104.758 78.2199 104.871 78.4784 104.888V104.865ZM86.624 104.865C86.8796 104.858 87.1228 104.754 87.304 104.574C87.4853 104.393 87.591 104.151 87.5995 103.895C87.6028 103.699 87.5475 103.506 87.4406 103.341C87.3338 103.176 87.1802 103.047 86.9995 102.97C86.8189 102.893 86.6195 102.872 86.4267 102.909C86.2339 102.946 86.0565 103.04 85.9173 103.178C85.778 103.317 85.6833 103.494 85.6451 103.686C85.6069 103.879 85.6271 104.079 85.703 104.26C85.7789 104.441 85.907 104.595 86.0711 104.703C86.2352 104.811 86.4277 104.868 86.624 104.865ZM96.7878 102.897C96.5277 102.905 96.2803 103.011 96.0952 103.194C95.9102 103.377 95.8011 103.624 95.7899 103.884C95.7994 104.139 95.9043 104.382 96.0839 104.563C96.2635 104.745 96.5047 104.853 96.7598 104.865C97.0206 104.864 97.2704 104.76 97.4559 104.577C97.6413 104.393 97.7476 104.145 97.752 103.884C97.7412 103.63 97.6365 103.39 97.4583 103.21C97.28 103.029 97.041 102.922 96.7878 102.908V102.897Z" fill="#F3F7F9"/>
<defs>
<filter id="filter0_d_137_51" x="4.1" y="5.1" width="147.8" height="147.8" filterUnits="userSpaceOnUse" color-interpolation-filters="sRGB">
<feFlood flood-opacity="0" result="BackgroundImageFix"/>
<feColorMatrix in="SourceAlpha" type="matrix" values="0 0 0 0 0 0 0 0 0 0 0 0 0 0 0 0 0 0 127 0" result="hardAlpha"/>
<feMorphology radius="6" operator="dilate" in="SourceAlpha" result="effect1_dropShadow_137_51"/>
<feOffset/>
<feGaussianBlur stdDeviation="6.45"/>
<feComposite in2="hardAlpha" operator="out"/>
<feColorMatrix type="matrix" values="0 0 0 0 0.917647 0 0 0 0 0.0745098 0 0 0 0 0.239216 0 0 0 0.35 0"/>
<feBlend mode="normal" in2="BackgroundImageFix" result="effect1_dropShadow_137_51"/>
<feBlend mode="normal" in="SourceGraphic" in2="effect1_dropShadow_137_51" result="shape"/>
</filter>
</defs>
</svg>
