<svg width="158" height="158" viewBox="0 0 158 158" fill="none" xmlns="http://www.w3.org/2000/svg">
<path d="M155.71 77.1957C155.537 77.195 155.366 77.2285 155.207 77.2942C155.047 77.3599 154.902 77.4565 154.78 77.5785C154.658 77.7005 154.561 77.8454 154.496 78.0049C154.43 78.1644 154.397 78.3354 154.397 78.5079C154.397 120.339 120.356 154.37 78.5192 154.37C36.6827 154.37 2.64123 120.339 2.64123 78.5341C2.64123 36.7294 36.6827 2.64002 78.5192 2.64002C78.8673 2.64002 79.2011 2.50177 79.4472 2.2557C79.6933 2.00963 79.8315 1.67588 79.8315 1.32788C79.8315 0.97988 79.6933 0.646136 79.4472 0.400062C79.2011 0.153988 78.8673 0.0157425 78.5192 0.0157425C35.2339 0.0157425 0.0166016 35.2283 0.0166016 78.5341C0.0166016 121.84 35.2339 157.021 78.5192 157.021C121.805 157.021 157.022 121.787 157.022 78.5341C157.025 78.3596 156.994 78.1862 156.93 78.0239C156.865 77.8617 156.769 77.7139 156.647 77.5893C156.525 77.4646 156.379 77.3656 156.218 77.298C156.057 77.2305 155.884 77.1957 155.71 77.1957Z" fill="#CFD6E2"/>
<path d="M154.313 68.7036C154.125 68.8221 153.963 68.9765 153.835 69.1579C153.706 69.3393 153.615 69.5442 153.566 69.7608C153.517 69.9775 153.511 70.2016 153.549 70.4205C153.587 70.6394 153.667 70.8487 153.786 71.0366C153.904 71.2244 154.059 71.387 154.24 71.5152C154.422 71.6433 154.626 71.7345 154.843 71.7835C155.06 71.8324 155.284 71.8383 155.503 71.8006C155.722 71.763 155.931 71.6826 156.119 71.564C156.401 71.3848 156.623 71.1265 156.758 70.8215C156.894 70.5164 156.936 70.1782 156.88 69.8493C156.824 69.5203 156.672 69.2152 156.443 68.9722C156.214 68.7292 155.919 68.559 155.594 68.4831C155.377 68.433 155.151 68.4266 154.931 68.4645C154.712 68.5023 154.501 68.5836 154.313 68.7036Z" fill="#CFD6E2"/>
<path d="M153.442 62.5103C153.254 62.6272 153.092 62.7802 152.964 62.9604C152.836 63.1406 152.745 63.3444 152.696 63.56C152.639 63.8078 152.639 64.0654 152.696 64.3133C152.753 64.5613 152.865 64.7932 153.024 64.9916C153.183 65.1901 153.385 65.35 153.614 65.4592C153.844 65.5685 154.096 65.6244 154.35 65.6227C154.669 65.6222 154.982 65.5332 155.253 65.3655C155.629 65.1268 155.897 64.7498 155.998 64.3158C156.07 63.9896 156.044 63.6496 155.923 63.3383C155.802 63.027 155.592 62.7583 155.319 62.566C155.046 62.3737 154.722 62.2664 154.388 62.2574C154.054 62.2484 153.725 62.3382 153.442 62.5155V62.5103Z" fill="#CFD6E2"/>
<path d="M152.256 56.8103C152.068 56.9289 151.905 57.0833 151.777 57.2647C151.649 57.4461 151.558 57.651 151.509 57.8676C151.46 58.0842 151.454 58.3084 151.491 58.5273C151.529 58.7462 151.609 58.9555 151.728 59.1433C151.847 59.3312 152.001 59.4938 152.182 59.6219C152.364 59.7501 152.569 59.8413 152.785 59.8903C153.002 59.9392 153.226 59.9451 153.445 59.9074C153.664 59.8698 153.873 59.7894 154.061 59.6708C154.441 59.4314 154.709 59.0511 154.808 58.6136C154.907 58.1761 154.828 57.7171 154.589 57.3378C154.349 56.9585 153.969 56.6898 153.531 56.5909C153.094 56.492 152.635 56.5709 152.256 56.8103Z" fill="#CFD6E2"/>
<path d="M149.92 52.2913C149.847 52.6179 149.872 52.9588 149.992 53.271C150.113 53.5832 150.323 53.8528 150.596 54.0459C150.869 54.2389 151.194 54.3468 151.528 54.3558C151.863 54.3649 152.193 54.2748 152.476 54.0968C152.855 53.8563 153.123 53.4753 153.221 53.0375C153.32 52.5997 153.24 52.1407 153.001 51.7612C152.761 51.3828 152.381 51.115 151.944 51.0166C151.507 50.9181 151.049 50.9972 150.67 51.2364C150.482 51.3543 150.319 51.5081 150.19 51.6891C150.061 51.8702 149.969 52.0748 149.92 52.2913Z" fill="#CFD6E2"/>
<path d="M147.799 48.0243C148.039 48.4016 148.419 48.6685 148.856 48.7668C149.293 48.8652 149.75 48.7869 150.13 48.5491C150.412 48.3706 150.636 48.1122 150.772 47.8067C150.907 47.5012 150.95 47.1623 150.893 46.8328C150.836 46.5033 150.682 46.1981 150.452 45.9558C150.222 45.7135 149.925 45.5449 149.598 45.4715C149.272 45.398 148.932 45.423 148.619 45.5431C148.307 45.6633 148.038 45.8733 147.845 46.1466C147.653 46.4199 147.546 46.7441 147.537 47.0784C147.529 47.4126 147.62 47.7418 147.799 48.0243Z" fill="#CFD6E2"/>
<path d="M146.796 43.4528C147.115 43.4523 147.428 43.3633 147.699 43.1956C148.076 42.9569 148.343 42.58 148.445 42.1459C148.523 41.803 148.493 41.4442 148.358 41.1193C148.224 40.7943 147.991 40.5192 147.693 40.3322C147.395 40.1452 147.047 40.0555 146.695 40.0755C146.344 40.0954 146.008 40.2242 145.733 40.4438C145.458 40.6634 145.259 40.9631 145.162 41.3012C145.065 41.6393 145.076 41.9992 145.192 42.331C145.309 42.6628 145.526 42.95 145.814 43.1529C146.101 43.3557 146.445 43.4642 146.796 43.4633V43.4528Z" fill="#CFD6E2"/>
<path d="M113.684 11.4313C114.02 11.4324 114.348 11.3338 114.627 11.1482C114.907 10.9625 115.125 10.6982 115.254 10.3885C115.383 10.0788 115.418 9.73776 115.353 9.40856C115.288 9.07937 115.127 8.77681 114.89 8.53919C114.653 8.30158 114.351 8.13959 114.022 8.07375C113.693 8.00791 113.352 8.04118 113.042 8.16934C112.732 8.29749 112.466 8.51478 112.28 8.79368C112.093 9.07258 111.994 9.40055 111.994 9.73607C111.994 10.1848 112.172 10.6152 112.488 10.933C112.805 11.2507 113.235 11.43 113.684 11.4313Z" fill="#CFD6E2"/>
<path d="M107.989 8.84381C108.922 8.84381 109.679 8.08716 109.679 7.15378C109.679 6.2204 108.922 5.46374 107.989 5.46374C107.055 5.46374 106.298 6.2204 106.298 7.15378C106.298 8.08716 107.055 8.84381 107.989 8.84381Z" fill="#CFD6E2"/>
<path d="M102.535 6.80213C103.468 6.80213 104.225 6.04547 104.225 5.11209C104.225 4.17871 103.468 3.42206 102.535 3.42206C101.601 3.42206 100.844 4.17871 100.844 5.11209C100.844 6.04547 101.601 6.80213 102.535 6.80213Z" fill="#CFD6E2"/>
<path d="M96.9756 5.16457C97.3099 5.16457 97.6367 5.06545 97.9147 4.87975C98.1926 4.69404 98.4093 4.43009 98.5372 4.12128C98.6651 3.81246 98.6986 3.47266 98.6334 3.14483C98.5682 2.81699 98.4072 2.51585 98.1708 2.27949C97.9344 2.04314 97.6332 1.88219 97.3054 1.81698C96.9775 1.75177 96.6376 1.78523 96.3288 1.91315C96.0199 2.04106 95.7559 2.25767 95.5702 2.53559C95.3845 2.81352 95.2853 3.14027 95.2853 3.47453C95.2853 3.92276 95.4634 4.35262 95.7804 4.66957C96.0974 4.98651 96.5273 5.16457 96.9756 5.16457Z" fill="#CFD6E2"/>
<path d="M91.0335 4.18835C91.967 4.18835 92.7237 3.43169 92.7237 2.49831C92.7237 1.56493 91.967 0.808277 91.0335 0.808277C90.1 0.808277 89.3432 1.56493 89.3432 2.49831C89.3432 3.43169 90.1 4.18835 91.0335 4.18835Z" fill="#CFD6E2"/>
<path d="M85.2068 3.38007C86.1403 3.38007 86.897 2.62341 86.897 1.69003C86.897 0.756654 86.1403 0 85.2068 0C84.2733 0 83.5165 0.756654 83.5165 1.69003C83.5165 2.62341 84.2733 3.38007 85.2068 3.38007Z" fill="#CFD6E2"/>
<path d="M118.093 19.7503H118.204L126.251 18.3699C126.42 18.338 126.57 18.2409 126.668 18.0995C126.766 17.9581 126.805 17.7838 126.776 17.6141L125.442 9.5576C125.409 9.38804 125.311 9.2382 125.169 9.14011C125.026 9.04203 124.851 9.00348 124.681 9.03275L122.45 9.4159C122.28 9.44656 122.13 9.54341 122.031 9.68513C121.933 9.82686 121.895 10.0019 121.925 10.1717L122.812 15.352L117.647 16.2338C117.478 16.2681 117.329 16.3666 117.231 16.5085C117.133 16.6504 117.094 16.8247 117.122 16.9948L117.505 19.2202C117.532 19.3605 117.604 19.4882 117.71 19.5839C117.817 19.6796 117.951 19.738 118.093 19.7503Z" fill="#CFD6E2"/>
<g filter="url(#filter0_d_137_50)">
<circle cx="78" cy="79" r="55" fill="#318CE7"/>
</g>
<path d="M107.97 77.6178V95.907C107.97 96.4674 107.97 97.0277 107.97 97.588C107.99 98.1798 107.83 98.7635 107.513 99.2584C107.196 99.7532 106.737 100.135 106.199 100.35C104.264 101.157 102.308 101.919 100.362 102.698C97.0122 104.037 93.6566 105.365 90.312 106.727C89.8942 106.907 89.4455 107 88.9922 107C88.5389 107 88.0902 106.907 87.6724 106.727L75.0153 101.516C73.1244 100.743 71.239 99.975 69.3536 99.1962C69.0513 99.0755 68.7158 99.0755 68.4136 99.1962L57.3961 102.99C55.844 103.522 54.2755 104.004 52.7344 104.575C52.4202 104.694 52.0825 104.731 51.751 104.683C51.4195 104.636 51.1047 104.505 50.8343 104.302C50.564 104.1 50.3466 103.832 50.2013 103.523C50.0561 103.214 49.9876 102.873 50.0018 102.53C50.0018 99.8293 50.0018 97.1285 50.0018 94.4221V67.1284C50.0018 65.7331 50.0018 64.3267 50.0018 62.9426C50.0018 61.0151 50.7069 60.0569 52.483 59.4518C56.2429 58.1742 59.992 56.863 63.7574 55.5967C65.2548 55.0924 66.7249 54.4761 68.2606 54.095C68.8894 53.9298 69.5538 53.981 70.1515 54.2407L78.2944 57.6027L88.3938 61.7379C88.5953 61.825 88.8118 61.8698 89.0305 61.8698C89.2491 61.8698 89.4656 61.825 89.6671 61.7379C93.806 60.0756 97.9466 58.4189 102.089 56.7678L105.193 55.5294C105.509 55.3917 105.853 55.3388 106.194 55.3755C106.535 55.4122 106.861 55.5374 107.142 55.7393C107.422 55.9412 107.648 56.2131 107.798 56.5294C107.947 56.8456 108.016 57.1957 107.997 57.5466C107.997 61.7753 107.997 66.0077 107.997 70.2438V77.5841L107.97 77.6178ZM105.947 57.5466C105.817 57.5217 105.681 57.5498 105.57 57.6251L97.5204 60.8302C95.1759 61.7659 92.8204 62.6681 90.4869 63.6318C90.0271 63.8431 89.53 63.9557 89.0262 63.9624C88.5224 63.9692 88.0226 63.87 87.5576 63.6711C85.3388 62.7353 83.1091 61.8276 80.8848 60.9142C77.3708 59.4742 73.8404 58.0678 70.3373 56.5829C69.9118 56.3797 69.4514 56.2648 68.9825 56.2446C68.5135 56.2244 68.0453 56.2994 67.6048 56.4652C62.7846 58.1462 57.9316 59.788 53.0951 61.441C52.1332 61.766 52.0021 61.9508 52.0021 63.0043C52.0021 67.0461 52.0021 71.0843 52.0021 75.1186C52.0021 84.14 52.0021 93.1632 52.0021 102.188C52.0021 102.659 52.1332 102.648 52.483 102.53C54.5597 101.807 56.6419 101.101 58.7241 100.39C61.7736 99.3419 64.823 98.2884 67.878 97.2518C68.6051 96.9925 69.3993 97.0125 70.1132 97.3079L79.0704 100.984C82.1636 102.254 85.2605 103.526 88.361 104.8C88.5611 104.888 88.7769 104.934 88.9949 104.934C89.213 104.934 89.4287 104.888 89.6289 104.8C91.8149 103.903 94.0392 103.023 96.247 102.144C99.2036 100.961 102.16 99.7733 105.122 98.6078C105.396 98.5231 105.631 98.3425 105.788 98.0977C105.945 97.853 106.013 97.5595 105.98 97.2686C105.98 92.3489 105.98 87.4236 105.98 82.4982C105.98 74.6312 105.98 66.7641 105.98 58.897L105.947 57.5466Z" fill="#F3F7F9"/>
<path d="M53.9913 80.8788V65.8003C53.9403 65.2897 54.0758 64.7779 54.3716 64.3639C54.6674 63.9499 55.1024 63.6631 55.5926 63.5589L61.0576 61.7099L68.2551 59.25C68.7729 59.0712 69.3368 59.0932 69.8399 59.3116C72.1826 60.2866 74.529 61.2541 76.8789 62.2142C80.8174 63.8279 84.7559 65.4417 88.6943 67.0555C88.8091 67.0998 88.9318 67.1187 89.0542 67.111C89.1767 67.1033 89.2962 67.0691 89.4048 67.0106L101.215 62.2926C101.517 62.1679 101.844 62.1211 102.168 62.1563C102.492 62.1916 102.802 62.3078 103.072 62.4948C103.342 62.6818 103.563 62.9338 103.715 63.2288C103.868 63.5237 103.948 63.8527 103.947 64.1866C103.98 65.4641 103.947 66.7417 103.947 68.0136C103.947 70.2848 103.947 72.5523 103.947 74.8161C103.947 77.0798 103.947 79.3454 103.947 81.6129C103.947 83.8542 103.947 86.146 103.947 88.4097C103.947 90.539 103.947 92.6738 103.947 94.8031C103.96 95.2205 103.842 95.6313 103.61 95.9744C103.377 96.3175 103.044 96.5748 102.658 96.7082L94.7277 99.8685C92.9315 100.589 91.1317 101.307 89.3283 102.02C89.1439 102.109 88.9354 102.132 88.7369 102.084C88.5384 102.036 88.3616 101.921 88.2353 101.757C88.0859 101.588 87.9953 101.373 87.9775 101.146C87.9597 100.919 88.0157 100.693 88.1369 100.502C88.2849 100.275 88.5084 100.112 88.7654 100.042C90.9514 99.1756 93.1465 98.3033 95.3507 97.4255C97.4384 96.5962 99.5151 95.7445 101.603 94.932C101.719 94.9002 101.82 94.8253 101.885 94.7218C101.951 94.6183 101.977 94.4936 101.958 94.3717C101.958 90.8042 101.958 87.2312 101.958 83.6525V70.0084C101.958 68.2377 101.958 66.4671 101.958 64.6964C101.958 64.349 101.958 64.209 101.537 64.3715C97.6734 65.9292 93.7987 67.4644 89.9349 69.0222C89.638 69.1496 89.3195 69.2153 88.9976 69.2153C88.6758 69.2153 88.3572 69.1496 88.0604 69.0222L69.3262 61.3288C69.0682 61.2243 68.7809 61.2243 68.5229 61.3288C64.4787 62.7184 60.4291 64.1025 56.3741 65.4809C56.2507 65.5042 56.1408 65.5755 56.0675 65.6799C55.9941 65.7844 55.963 65.9138 55.9806 66.0412C55.9806 70.4044 55.9806 74.7731 55.9806 79.1474C55.9806 82.431 55.9806 85.7201 55.9806 89.0093C55.9806 91.2506 55.9806 93.5423 55.9806 95.8061C55.9806 96.1983 56.0844 96.2151 56.4014 96.1031C58.4071 95.4027 60.4182 94.719 62.4129 94.0298L66.4461 92.6514C66.5996 92.5794 66.7665 92.5421 66.9353 92.5421C67.1041 92.5421 67.2709 92.5794 67.4244 92.6514C67.5982 92.7386 67.743 92.8767 67.8403 93.0483C67.9375 93.2198 67.983 93.4171 67.9709 93.6152C67.9662 93.8204 67.8988 94.019 67.7782 94.1828C67.6576 94.3467 67.4899 94.4676 67.2987 94.5285C66.7194 94.7414 66.1346 94.932 65.5499 95.1281C62.637 96.1199 59.7132 97.078 56.8058 98.1203C56.4819 98.2654 56.1267 98.3218 55.7752 98.2837C55.4237 98.2456 55.0878 98.1144 54.8006 97.903C54.5135 97.6917 54.2848 97.4074 54.1372 97.0781C53.9896 96.7487 53.928 96.3857 53.9585 96.0246C53.9858 95.5618 53.9858 95.0978 53.9585 94.635V84.6835L53.9913 80.8788Z" fill="#F3F7F9"/>
<path d="M79.6552 90.1916C79.0734 90.1944 78.4978 90.0702 77.9665 89.8273C76.9227 89.3903 75.8734 88.9644 74.8733 88.4433C74.0477 88.0307 73.3268 87.4273 72.7673 86.6806C72.2078 85.9339 71.825 85.0642 71.6489 84.14C70.9986 81.1254 70.2935 78.1276 69.6104 75.1242C69.3317 73.8803 69.0639 72.6363 68.7633 71.4036C68.6079 70.8228 68.2625 70.3144 67.7851 69.9634C67.3077 69.6125 66.7272 69.4404 66.1408 69.4758C65.5544 69.5113 64.9977 69.7522 64.5638 70.1582C64.1299 70.5642 63.8452 71.1107 63.7574 71.7062C63.6317 72.5803 63.5388 73.4601 63.4349 74.3398C63.107 77.063 62.7846 79.7862 62.4676 82.5094C62.3091 83.8654 62.1671 85.2214 62.014 86.5774C61.9986 86.7257 61.9693 86.872 61.9266 87.0145C61.8545 87.2538 61.6999 87.4579 61.4917 87.5888C61.2835 87.7198 61.036 87.7686 60.7953 87.7261C60.5534 87.6835 60.3361 87.5492 60.1863 87.35C60.0364 87.1507 59.9651 86.901 59.9865 86.6503C60.0521 85.7986 60.1668 84.9693 60.2652 84.1064C60.5549 81.6185 60.8117 79.1306 61.1342 76.6484C61.3637 74.8049 61.4566 72.939 61.8282 71.1179C61.9766 70.2355 62.3851 69.4209 62.9987 68.7837C63.6123 68.1466 64.4016 67.7174 65.2603 67.5541C66.0971 67.3317 66.9793 67.3662 67.7973 67.653C68.6152 67.9399 69.3331 68.4666 69.8618 69.1679C70.4304 69.9348 70.8058 70.8336 70.9548 71.7847C71.6544 74.93 72.3575 78.0698 73.0643 81.2039C73.2447 82.0052 73.425 82.812 73.6108 83.6133C73.7355 84.3027 74.0256 84.9496 74.4549 85.4954C74.8842 86.0413 75.4393 86.469 76.0701 86.74C76.8571 87.1098 77.644 87.4684 78.4419 87.8158C80.5023 88.7067 82.4587 87.5356 82.7812 85.2663C82.9149 84.0605 83.1397 82.8671 83.4534 81.697C83.8716 80.4242 84.6391 79.3021 85.6636 78.4653C86.6882 77.6285 87.9265 77.1124 89.2299 76.979C89.4944 76.9567 89.7568 77.043 89.9592 77.219C90.1616 77.395 90.2875 77.6463 90.3093 77.9175C90.331 78.1887 90.2468 78.4577 90.0751 78.6652C89.9034 78.8728 89.6584 79.0019 89.3939 79.0242C88.5326 79.1266 87.7138 79.4632 87.0221 79.9992C86.4636 80.4394 86.0007 80.9941 85.6629 81.628C85.3251 82.2618 85.1198 82.9608 85.0601 83.6805C84.9644 84.6252 84.8018 85.5616 84.5737 86.4822C84.2702 87.5716 83.6226 88.527 82.7324 89.1983C81.8422 89.8697 80.7599 90.219 79.6552 90.1916Z" fill="#F3F7F9"/>
<path d="M91.1372 73.5722C91.2987 73.5776 91.4573 73.6172 91.6031 73.6885C91.7489 73.7599 91.8787 73.8615 91.9843 73.9868C92.5636 74.5864 93.1483 75.1691 93.7167 75.7743C93.9025 75.976 94.0118 75.976 94.2031 75.7743C94.7933 75.1467 95.4054 74.5415 96.012 73.9364C96.1005 73.826 96.2102 73.7356 96.3344 73.6708C96.4585 73.606 96.5944 73.5683 96.7334 73.5599C96.8725 73.5515 97.0117 73.5726 97.1424 73.6219C97.2732 73.6713 97.3926 73.7479 97.4931 73.8468C97.593 73.9467 97.6713 74.067 97.7232 74.1999C97.775 74.3328 97.7991 74.4753 97.7939 74.6184C97.7888 74.7614 97.7545 74.9018 97.6933 75.0304C97.632 75.159 97.5452 75.2731 97.4384 75.3652C96.8481 75.9872 96.258 76.6148 95.6404 77.2144C95.4164 77.4329 95.4218 77.5506 95.6404 77.7747C96.2361 78.335 96.8099 78.9457 97.3892 79.5397C97.5004 79.6318 97.5919 79.7465 97.6579 79.8765C97.7238 80.0065 97.763 80.1491 97.7727 80.2953C97.7825 80.4415 97.7626 80.5883 97.7145 80.7263C97.6664 80.8643 97.591 80.9907 97.4931 81.0974C97.3926 81.2082 97.2694 81.2948 97.1324 81.351C96.9953 81.4073 96.8479 81.4317 96.7005 81.4226C96.5532 81.4135 96.4097 81.3711 96.2803 81.2984C96.1508 81.2257 96.0387 81.1245 95.9519 81.0021C95.3671 80.3914 94.7715 79.7919 94.2031 79.1699C94.0173 78.9682 93.908 78.9626 93.7167 79.1699C93.132 79.8031 92.5253 80.4082 91.9242 81.0246C91.8391 81.1427 91.7296 81.2402 91.6035 81.3099C91.4774 81.3797 91.3378 81.42 91.1948 81.4281C91.0517 81.4361 90.9087 81.4116 90.7759 81.3564C90.6432 81.3012 90.5239 81.2166 90.4267 81.1086C90.3246 81.0062 90.2451 80.8825 90.1938 80.7458C90.1424 80.6091 90.1204 80.4626 90.1292 80.3164C90.138 80.1701 90.1774 80.0276 90.2448 79.8984C90.3122 79.7692 90.4059 79.6564 90.5196 79.5677C91.0989 78.9738 91.6618 78.363 92.263 77.7914C92.5198 77.5505 92.4761 77.4216 92.263 77.2311C91.7165 76.7044 91.17 76.1553 90.6727 75.6117C90.4845 75.4444 90.3304 75.2407 90.2191 75.0122C90.1436 74.8565 90.1092 74.6833 90.1191 74.5097C90.1291 74.3361 90.1832 74.1682 90.276 74.0227C90.3688 73.8771 90.4971 73.7589 90.6481 73.6799C90.7992 73.6009 90.9678 73.5638 91.1372 73.5722Z" fill="#F3F7F9"/>
<path d="M81.9669 97.2294C81.9669 97.5768 81.9669 97.9186 81.9669 98.266C81.9617 98.524 81.8612 98.7705 81.6857 98.9556C81.5102 99.1407 81.2729 99.2507 81.0214 99.2634C80.7846 99.2808 80.5499 99.2073 80.3631 99.0571C80.1762 98.9069 80.0505 98.6908 80.0104 98.4509C79.8902 97.6205 79.8902 96.7765 80.0104 95.9462C80.0546 95.7002 80.1892 95.481 80.3866 95.3339C80.5839 95.1869 80.8288 95.1232 81.0706 95.1561C81.3137 95.1785 81.5398 95.2932 81.7046 95.4777C81.8694 95.6623 81.961 95.9033 81.9614 96.1535C81.9724 96.5121 81.9669 96.8708 81.9669 97.2294Z" fill="#F3F7F9"/>
<path d="M86.9401 99.0393C86.9401 99.3811 86.9401 99.7285 86.9401 100.07C86.9407 100.313 86.8512 100.547 86.6899 100.725C86.5286 100.903 86.3074 101.011 86.0711 101.028C85.9504 101.054 85.826 101.054 85.7053 101.029C85.5846 101.004 85.4699 100.954 85.3681 100.883C85.2662 100.812 85.1793 100.721 85.1123 100.615C85.0453 100.509 84.9997 100.391 84.9781 100.266C84.8579 99.436 84.8579 98.592 84.9781 97.7617C84.9953 97.6334 85.0376 97.5099 85.1024 97.3988C85.1671 97.2876 85.2531 97.1909 85.3551 97.1146C85.4571 97.0382 85.5731 96.9837 85.6962 96.9544C85.8192 96.925 85.9467 96.9213 86.0711 96.9436C86.3115 96.9799 86.5321 97.1011 86.6947 97.2862C86.8573 97.4714 86.9518 97.7089 86.9619 97.9578V99.0393H86.9401Z" fill="#F3F7F9"/>
<path d="M76.9554 95.3915C76.9554 95.7669 76.9554 96.1423 76.9554 96.5121C76.9321 96.7682 76.8158 97.006 76.6295 97.1783C76.4433 97.3506 76.2007 97.4448 75.9499 97.4423C75.7067 97.4364 75.4742 97.3388 75.2968 97.1683C75.1193 96.9978 75.0094 96.7661 74.988 96.5177C74.9552 95.8173 74.9443 95.1113 74.988 94.4053C74.9858 94.2631 75.0114 94.122 75.0633 93.9901C75.1152 93.8582 75.1923 93.7384 75.2901 93.6376C75.3879 93.5368 75.5044 93.4571 75.6327 93.4032C75.7611 93.3493 75.8986 93.3224 76.0373 93.3239C76.1732 93.3276 76.3069 93.3603 76.4298 93.4199C76.5528 93.4796 76.6622 93.5649 76.7512 93.6703C76.8401 93.7758 76.9067 93.8991 76.9465 94.0324C76.9864 94.1657 76.9988 94.3061 76.9828 94.4445C76.9828 94.7583 76.9828 95.0721 76.9828 95.3859L76.9554 95.3915Z" fill="#F3F7F9"/>
<path d="M71.9549 93.4303C71.9549 93.7609 71.9549 94.0915 71.9549 94.4221C71.9557 94.5533 71.931 94.6834 71.8823 94.8047C71.8337 94.926 71.7621 95.0363 71.6716 95.1291C71.5811 95.2218 71.4736 95.2953 71.3553 95.3451C71.2369 95.395 71.1101 95.4203 70.9821 95.4195C70.7237 95.4199 70.4752 95.3182 70.2879 95.1356C70.1007 94.953 69.9892 94.7036 69.9766 94.439C69.9766 93.7049 69.9766 92.9709 69.9766 92.2368C69.9865 91.9861 70.0914 91.7493 70.269 91.5766C70.4466 91.404 70.6828 91.3091 70.9275 91.3123C71.1705 91.299 71.4093 91.3807 71.5959 91.5408C71.7825 91.7009 71.903 91.9276 71.933 92.1752C71.9713 92.5898 71.933 93.0101 71.933 93.4303H71.9549Z" fill="#F3F7F9"/>
<defs>
<filter id="filter0_d_137_50" x="4.1" y="5.1" width="147.8" height="147.8" filterUnits="userSpaceOnUse" color-interpolation-filters="sRGB">
<feFlood flood-opacity="0" result="BackgroundImageFix"/>
<feColorMatrix in="SourceAlpha" type="matrix" values="0 0 0 0 0 0 0 0 0 0 0 0 0 0 0 0 0 0 127 0" result="hardAlpha"/>
<feMorphology radius="6" operator="dilate" in="SourceAlpha" result="effect1_dropShadow_137_50"/>
<feOffset/>
<feGaussianBlur stdDeviation="6.45"/>
<feComposite in2="hardAlpha" operator="out"/>
<feColorMatrix type="matrix" values="0 0 0 0 0.917647 0 0 0 0 0.0745098 0 0 0 0 0.239216 0 0 0 0.35 0"/>
<feBlend mode="normal" in2="BackgroundImageFix" result="effect1_dropShadow_137_50"/>
<feBlend mode="normal" in="SourceGraphic" in2="effect1_dropShadow_137_50" result="shape"/>
</filter>
</defs>
</svg>
