<svg width="158" height="158" viewBox="0 0 158 158" fill="none" xmlns="http://www.w3.org/2000/svg">
<path d="M155.698 77.1957C155.526 77.195 155.355 77.2285 155.195 77.2942C155.036 77.3599 154.891 77.4565 154.769 77.5785C154.647 77.7005 154.55 77.8454 154.485 78.0049C154.419 78.1644 154.385 78.3354 154.386 78.5079C154.386 120.339 120.345 154.37 78.5081 154.37C36.6716 154.37 2.63012 120.339 2.63012 78.5341C2.63012 36.7294 36.6716 2.64002 78.5081 2.64002C78.8562 2.64002 79.1899 2.50177 79.4361 2.2557C79.6822 2.00963 79.8204 1.67588 79.8204 1.32788C79.8204 0.97988 79.6822 0.646136 79.4361 0.400062C79.1899 0.153988 78.8562 0.0157425 78.5081 0.0157425C35.2228 0.0157425 0.00549316 35.2283 0.00549316 78.5341C0.00549316 121.84 35.2228 157.021 78.5081 157.021C121.793 157.021 157.011 121.787 157.011 78.5341C157.014 78.3596 156.983 78.1862 156.918 78.0239C156.854 77.8617 156.758 77.7139 156.636 77.5893C156.514 77.4646 156.368 77.3656 156.207 77.298C156.046 77.2305 155.873 77.1957 155.698 77.1957Z" fill="#CFD6E2"/>
<path d="M154.302 68.7036C154.114 68.8221 153.952 68.9765 153.823 69.1579C153.695 69.3393 153.604 69.5442 153.555 69.7608C153.506 69.9775 153.5 70.2016 153.538 70.4205C153.576 70.6394 153.656 70.8487 153.775 71.0366C153.893 71.2244 154.048 71.387 154.229 71.5152C154.41 71.6433 154.615 71.7345 154.832 71.7835C155.049 71.8324 155.273 71.8383 155.492 71.8006C155.711 71.763 155.92 71.6826 156.108 71.564C156.389 71.3848 156.612 71.1265 156.747 70.8215C156.882 70.5164 156.925 70.1782 156.869 69.8493C156.813 69.5203 156.661 69.2152 156.432 68.9722C156.203 68.7292 155.908 68.559 155.583 68.4831C155.366 68.433 155.14 68.4266 154.92 68.4645C154.7 68.5023 154.49 68.5836 154.302 68.7036Z" fill="#CFD6E2"/>
<path d="M153.431 62.5103C153.243 62.6272 153.081 62.7802 152.953 62.9604C152.825 63.1406 152.734 63.3444 152.685 63.56C152.628 63.8078 152.628 64.0654 152.685 64.3133C152.741 64.5613 152.854 64.7932 153.013 64.9916C153.172 65.1901 153.374 65.35 153.603 65.4592C153.833 65.5685 154.085 65.6244 154.339 65.6227C154.658 65.6222 154.97 65.5332 155.242 65.3655C155.618 65.1268 155.886 64.7498 155.987 64.3158C156.059 63.9896 156.033 63.6496 155.912 63.3383C155.791 63.027 155.581 62.7583 155.307 62.566C155.034 62.3737 154.711 62.2664 154.377 62.2574C154.043 62.2484 153.714 62.3382 153.431 62.5155V62.5103Z" fill="#CFD6E2"/>
<path d="M152.244 56.8103C152.057 56.9289 151.894 57.0833 151.766 57.2647C151.638 57.4461 151.546 57.651 151.497 57.8676C151.448 58.0842 151.443 58.3084 151.48 58.5273C151.518 58.7462 151.598 58.9555 151.717 59.1433C151.835 59.3312 151.99 59.4938 152.171 59.6219C152.353 59.7501 152.558 59.8413 152.774 59.8903C152.991 59.9392 153.215 59.9451 153.434 59.9074C153.653 59.8698 153.862 59.7894 154.05 59.6708C154.43 59.4314 154.698 59.0511 154.797 58.6136C154.896 58.1761 154.817 57.7171 154.578 57.3378C154.338 56.9585 153.958 56.6898 153.52 56.5909C153.083 56.492 152.624 56.5709 152.244 56.8103Z" fill="#CFD6E2"/>
<path d="M149.909 52.2913C149.835 52.6179 149.861 52.9588 149.981 53.271C150.102 53.5832 150.312 53.8528 150.585 54.0459C150.858 54.2389 151.183 54.3468 151.517 54.3558C151.852 54.3649 152.181 54.2748 152.465 54.0968C152.844 53.8563 153.112 53.4753 153.21 53.0375C153.309 52.5997 153.229 52.1407 152.99 51.7612C152.75 51.3828 152.37 51.115 151.933 51.0166C151.496 50.9181 151.038 50.9972 150.659 51.2364C150.471 51.3543 150.308 51.5081 150.179 51.6891C150.05 51.8702 149.958 52.0748 149.909 52.2913Z" fill="#CFD6E2"/>
<path d="M147.788 48.0243C148.028 48.4016 148.408 48.6685 148.845 48.7668C149.282 48.8652 149.739 48.7869 150.118 48.5491C150.401 48.3706 150.625 48.1122 150.76 47.8067C150.896 47.5012 150.938 47.1623 150.882 46.8328C150.825 46.5033 150.671 46.1981 150.441 45.9558C150.211 45.7135 149.913 45.5449 149.587 45.4715C149.261 45.398 148.92 45.423 148.608 45.5431C148.296 45.6633 148.027 45.8733 147.834 46.1466C147.642 46.4199 147.534 46.7441 147.526 47.0784C147.518 47.4126 147.609 47.7418 147.788 48.0243Z" fill="#CFD6E2"/>
<path d="M146.785 43.4528C147.104 43.4523 147.417 43.3633 147.688 43.1956C148.065 42.9569 148.332 42.58 148.433 42.1459C148.512 41.803 148.482 41.4442 148.347 41.1193C148.212 40.7943 147.98 40.5192 147.682 40.3322C147.384 40.1452 147.035 40.0555 146.684 40.0755C146.333 40.0954 145.997 40.2242 145.722 40.4438C145.447 40.6634 145.248 40.9631 145.151 41.3012C145.054 41.6393 145.064 41.9992 145.181 42.331C145.298 42.6628 145.515 42.95 145.803 43.1529C146.09 43.3557 146.433 43.4642 146.785 43.4633V43.4528Z" fill="#CFD6E2"/>
<path d="M113.673 11.4313C114.008 11.4324 114.337 11.3338 114.616 11.1482C114.896 10.9625 115.114 10.6982 115.243 10.3885C115.372 10.0788 115.407 9.73776 115.342 9.40856C115.277 9.07937 115.116 8.77681 114.879 8.53919C114.642 8.30158 114.34 8.13959 114.011 8.07375C113.682 8.00791 113.341 8.04118 113.031 8.16934C112.72 8.29749 112.455 8.51478 112.269 8.79368C112.082 9.07258 111.983 9.40055 111.983 9.73607C111.983 10.1848 112.161 10.6152 112.477 10.933C112.794 11.2507 113.224 11.43 113.673 11.4313Z" fill="#CFD6E2"/>
<path d="M107.977 8.84381C108.911 8.84381 109.668 8.08716 109.668 7.15378C109.668 6.2204 108.911 5.46374 107.977 5.46374C107.044 5.46374 106.287 6.2204 106.287 7.15378C106.287 8.08716 107.044 8.84381 107.977 8.84381Z" fill="#CFD6E2"/>
<path d="M102.523 6.80213C103.457 6.80213 104.214 6.04547 104.214 5.11209C104.214 4.17871 103.457 3.42206 102.523 3.42206C101.59 3.42206 100.833 4.17871 100.833 5.11209C100.833 6.04547 101.59 6.80213 102.523 6.80213Z" fill="#CFD6E2"/>
<path d="M96.9645 5.16457C97.2988 5.16457 97.6256 5.06545 97.9036 4.87975C98.1815 4.69404 98.3982 4.43009 98.5261 4.12128C98.654 3.81246 98.6875 3.47266 98.6223 3.14483C98.5571 2.81699 98.3961 2.51585 98.1597 2.27949C97.9233 2.04314 97.6221 1.88219 97.2943 1.81698C96.9664 1.75177 96.6265 1.78523 96.3177 1.91315C96.0088 2.04106 95.7448 2.25767 95.5591 2.53559C95.3734 2.81352 95.2742 3.14027 95.2742 3.47453C95.2742 3.92276 95.4523 4.35262 95.7693 4.66957C96.0863 4.98651 96.5162 5.16457 96.9645 5.16457Z" fill="#CFD6E2"/>
<path d="M91.0223 4.18835C91.9558 4.18835 92.7126 3.43169 92.7126 2.49831C92.7126 1.56493 91.9558 0.808277 91.0223 0.808277C90.0888 0.808277 89.3321 1.56493 89.3321 2.49831C89.3321 3.43169 90.0888 4.18835 91.0223 4.18835Z" fill="#CFD6E2"/>
<path d="M85.1957 3.38007C86.1292 3.38007 86.8859 2.62341 86.8859 1.69003C86.8859 0.756654 86.1292 0 85.1957 0C84.2622 0 83.5054 0.756654 83.5054 1.69003C83.5054 2.62341 84.2622 3.38007 85.1957 3.38007Z" fill="#CFD6E2"/>
<path d="M118.082 19.7503H118.192L126.24 18.3699C126.409 18.338 126.559 18.2409 126.657 18.0995C126.755 17.9581 126.794 17.7838 126.765 17.6141L125.431 9.5576C125.398 9.38804 125.3 9.2382 125.158 9.14011C125.015 9.04203 124.84 9.00348 124.67 9.03275L122.439 9.4159C122.269 9.44656 122.119 9.54341 122.02 9.68513C121.922 9.82686 121.884 10.0019 121.914 10.1717L122.801 15.352L117.636 16.2338C117.467 16.2681 117.318 16.3666 117.22 16.5085C117.122 16.6504 117.083 16.8247 117.111 16.9948L117.494 19.2202C117.521 19.3605 117.593 19.4882 117.699 19.5839C117.805 19.6796 117.94 19.738 118.082 19.7503Z" fill="#CFD6E2"/>
<g filter="url(#filter0_d_137_48)">
<circle cx="78" cy="79" r="55" fill="#318CE7"/>
</g>
<path d="M47.004 89.5807C47.004 86.3778 47.004 83.1749 47.004 79.9775C46.9817 79.7045 47.0525 79.432 47.2044 79.2059C47.3564 78.9799 47.5803 78.8141 47.8382 78.7366C52.4592 76.7467 57.0582 74.712 61.6737 72.7108C62.0633 72.5432 62.0249 72.2748 62.0249 71.973V56.523C62.0249 55.5615 62.0249 54.5945 62.0249 53.633C62.0124 53.3892 62.0787 53.148 62.2134 52.9461C62.3482 52.7442 62.5441 52.5929 62.7713 52.5151C67.6228 50.4022 72.4724 48.2836 77.3202 46.1595C77.5342 46.0545 77.7687 46 78.0062 46C78.2437 46 78.4782 46.0545 78.6922 46.1595C83.5547 48.3023 88.4226 50.4264 93.296 52.5319C93.5074 52.6007 93.6906 52.739 93.8167 52.9251C93.9428 53.1112 94.0047 53.3346 93.993 53.5604C93.993 57.1713 93.993 60.7823 93.993 64.3933C93.993 66.9758 93.993 69.5582 93.993 72.1407C93.9792 72.2806 94.0147 72.4209 94.0931 72.5366C94.1715 72.6524 94.2877 72.7359 94.4211 72.7723C98.9762 74.7567 103.531 76.7522 108.097 78.7142C108.382 78.8024 108.627 78.9894 108.791 79.2426C108.954 79.4959 109.025 79.7994 108.992 80.1005C108.97 86.5399 108.97 92.9812 108.992 99.4243C109.01 99.6723 108.943 99.919 108.803 100.123C108.663 100.326 108.459 100.475 108.224 100.542C103.553 102.577 98.8939 104.606 94.2345 106.691C93.8707 106.873 93.4708 106.968 93.0655 106.968C92.6602 106.968 92.2603 106.873 91.8966 106.691C87.5665 104.751 83.198 102.89 78.8569 100.956C78.5964 100.822 78.3088 100.753 78.0172 100.753C77.7255 100.753 77.4379 100.822 77.1775 100.956C72.7212 102.929 68.2539 104.869 63.7921 106.82C63.5508 106.938 63.2863 107 63.0183 107C62.7503 107 62.4857 106.938 62.2445 106.82C57.4588 104.707 52.666 102.612 47.8657 100.537C47.6069 100.455 47.3833 100.286 47.2316 100.057C47.08 99.8284 47.0094 99.554 47.0315 99.279C47.015 96.0201 47.004 92.8004 47.004 89.5807ZM63.9457 104.505C64.0238 104.488 64.1008 104.465 64.1763 104.438C68.3253 102.627 72.4687 100.805 76.6232 99.0106C77.0238 98.8373 77.0239 98.5858 77.0239 98.2504C77.0239 92.7948 77.0239 87.3374 77.0239 81.8781C77.0239 81.7048 77.0788 81.5203 76.958 81.3191C76.8979 81.3234 76.8388 81.3366 76.7824 81.3582C72.6334 83.1655 68.4826 84.9729 64.33 86.7803C64.1976 86.8207 64.085 86.9105 64.0148 87.0317C63.9446 87.153 63.9219 87.2967 63.9512 87.4342C63.9512 88.9491 63.9512 90.4695 63.9512 91.9843L63.9457 104.505ZM92.0338 55.0417C91.8939 55.0774 91.7564 55.1222 91.6222 55.1758C87.5171 56.972 83.4084 58.7682 79.296 60.5643C78.9777 60.7041 78.9556 60.8941 78.9556 61.1792C78.9556 66.6739 78.9556 72.1686 78.9556 77.6634C78.9556 78.2223 79.0928 78.2223 79.5044 78.0267C83.4998 76.2641 87.4988 74.5163 91.5014 72.7835C91.6755 72.7421 91.8281 72.6361 91.9295 72.4862C92.031 72.3364 92.074 72.1534 92.0503 71.973C92.0503 67.8533 92.0503 63.7281 92.0503 59.6084L92.0338 55.0417ZM93.9546 104.528C94.1412 104.461 94.2564 104.433 94.3662 104.382C98.4384 102.597 102.512 100.818 106.588 99.0442C106.745 98.9894 106.877 98.8791 106.961 98.7334C107.044 98.5877 107.074 98.4163 107.044 98.2504C107.044 92.7892 107.044 87.3337 107.044 81.8781C107.087 81.6885 107.059 81.4894 106.967 81.3191C106.802 81.3862 106.632 81.442 106.467 81.5147C102.505 83.2475 98.5481 84.9916 94.5748 86.7076C94.3771 86.7556 94.2038 86.8763 94.0883 87.0466C93.9728 87.2169 93.9232 87.4246 93.9491 87.6299C93.9875 89.7037 93.9491 91.7719 93.9491 93.8457L93.9546 104.528ZM74.2304 59.4799V60.4246C74.2304 62.6828 74.2304 64.9392 74.2304 67.1938C74.2581 67.4192 74.2052 67.6473 74.0812 67.8362C73.9572 68.0251 73.7705 68.1622 73.5554 68.2223C73.3426 68.2946 73.1115 68.2883 72.9028 68.2045C72.6941 68.1207 72.521 67.9648 72.4139 67.7639C72.0352 67.205 71.662 66.6013 71.2778 66.0255C70.976 65.5672 70.729 64.8572 70.3339 64.7455C69.9387 64.6337 69.379 65.1311 68.896 65.3715C67.7984 65.9305 67.1727 65.5504 67.1782 64.2536C67.1782 61.7717 67.1782 59.2898 67.1782 56.808C67.1782 56.6067 67.2221 56.3944 66.9752 56.2882L63.9842 54.9969C63.9642 55.0759 63.9495 55.1562 63.9403 55.2373C63.9403 60.8568 63.9403 66.4764 63.9403 72.096C63.9261 72.2351 63.9609 72.3748 64.0382 72.4905C64.1155 72.6061 64.2305 72.6901 64.3628 72.7276C68.424 74.494 72.4834 76.2641 76.5409 78.0379C76.8702 78.1832 77.0184 78.2223 77.0184 77.7472C77.0184 72.191 77.0184 66.6292 77.0184 61.0729C77.0184 60.8885 77.0183 60.6929 76.8318 60.6034L74.2304 59.4799ZM92.0228 104.533V101.61C92.0228 96.9144 92.0228 92.2191 92.0228 87.5237C92.0228 87.3225 92.149 87.0486 91.8691 86.92C91.0184 86.5399 90.1569 86.1654 89.2404 85.7629V86.4672C89.2404 88.7814 89.2404 91.1012 89.2404 93.4153C89.2772 93.6545 89.2282 93.8993 89.1021 94.1046C88.9761 94.31 88.7816 94.4622 88.5543 94.5333C88.3269 94.6006 88.083 94.5809 87.8687 94.478C87.6545 94.375 87.4845 94.1959 87.3909 93.9743C87.0122 93.3706 86.6116 92.778 86.2219 92.1855C85.953 91.7775 85.7554 91.1794 85.3822 91.0285C85.009 90.8776 84.4821 91.3583 84.0376 91.5874C82.7205 92.2247 82.1498 91.8613 82.1717 90.38V83.0631C82.1717 82.8618 82.1717 82.6662 81.9412 82.56C80.9698 82.1463 79.9984 81.7159 79.0051 81.2855C78.9853 81.3608 78.9706 81.4374 78.9611 81.5147C78.9611 87.1529 78.9611 92.793 78.9611 98.4349C78.9611 98.7647 79.1093 98.8821 79.3727 98.9939C81.2003 99.782 83.0223 100.587 84.8608 101.386L92.0228 104.533ZM48.9743 81.2855C48.9743 81.4197 48.9743 81.4923 48.9743 81.5706C48.9743 87.1939 48.9743 92.8153 48.9743 98.4349C48.9743 98.7647 49.1115 98.8821 49.3804 98.9939L60.3566 103.784C60.9054 104.03 61.4542 104.259 62.0744 104.517C62.0744 99.128 62.0359 93.8345 62.1073 88.541C62.1073 87.3616 61.9207 86.6013 60.6914 86.3666C60.3982 86.2904 60.1185 86.1678 59.8626 86.0033C59.4291 85.7518 59.2754 85.7964 59.2809 86.3666C59.2809 88.7031 59.2809 91.0452 59.2809 93.3817C59.3106 93.627 59.2527 93.8749 59.1176 94.0802C58.9826 94.2855 58.7795 94.4344 58.5455 94.4997C58.3188 94.5607 58.0781 94.5381 57.8662 94.4358C57.6542 94.3335 57.4847 94.1581 57.3875 93.9407C57.0253 93.3817 56.6631 92.8228 56.2899 92.2638C55.999 91.8278 55.7411 91.1459 55.3734 91.0285C55.0057 90.9111 54.4075 91.4086 53.9245 91.6433C52.8269 92.2023 52.1848 91.8222 52.1793 90.5254C52.1793 88.0883 52.1793 85.6455 52.1793 83.2028C52.1793 82.9513 52.2671 82.6438 51.9323 82.5208C50.9225 82.1351 49.9677 81.7159 48.9743 81.2855ZM57.2887 90.285C57.2887 88.3062 57.3326 86.5063 57.2887 84.6952C57.2445 84.3426 57.3268 83.9857 57.5204 83.6899C57.714 83.3942 58.0059 83.1795 58.3424 83.0854C61.7286 81.6376 65.0928 80.1452 68.4679 78.6695L70.773 77.6578C69.818 77.2385 68.9728 76.8752 68.1332 76.4951C68.0271 76.4427 67.9108 76.4154 67.7929 76.4154C67.675 76.4154 67.5587 76.4427 67.4526 76.4951C63.161 78.377 58.8675 80.2533 54.5721 82.124C54.4115 82.1709 54.273 82.2754 54.1822 82.4182C54.0914 82.561 54.0545 82.7325 54.0782 82.901C54.0782 84.6841 54.0782 86.4672 54.0782 88.2503C54.0782 89.3124 54.0782 89.3124 55.0276 88.8541C55.8069 88.4739 56.1252 88.5745 56.674 89.3068C56.8222 89.5807 56.9978 89.8546 57.2887 90.285ZM85.7828 51.4027C84.7895 50.9611 83.8895 50.5699 82.9894 50.1618C82.9042 50.1319 82.8133 50.1223 82.7238 50.134C82.6343 50.1456 82.5487 50.1781 82.4735 50.2289L69.4778 55.908C69.3616 55.9408 69.2611 56.0158 69.1954 56.1187C69.1297 56.2217 69.1033 56.3455 69.121 56.467C69.121 57.121 69.121 57.7806 69.121 58.4346V62.9791C69.8125 62.8729 70.2735 62.2133 70.9815 62.4201C71.6895 62.6269 71.7498 63.4095 72.2932 63.8455C72.2932 61.9394 72.2932 60.1004 72.2932 58.2558C72.2659 57.9619 72.3396 57.6674 72.5017 57.4228C72.6639 57.1781 72.9044 56.9983 73.1822 56.9142C75.7507 55.7963 78.3081 54.6783 80.8655 53.5604L85.7828 51.4027ZM100.782 77.6746C99.8762 77.2721 99.0859 76.9423 98.3121 76.5566C98.1554 76.4733 97.9813 76.4298 97.8045 76.4298C97.6277 76.4298 97.4535 76.4733 97.2968 76.5566C93.0454 78.4198 88.7866 80.2831 84.5206 82.1464C84.3886 82.1864 84.2752 82.2733 84.2007 82.3912C84.1262 82.5091 84.0956 82.6503 84.1144 82.7892C84.1144 84.7791 84.1144 86.7691 84.1144 88.759C84.1144 88.9155 84.0596 89.0832 84.1913 89.2341C84.795 89.0888 85.2889 88.4627 85.9694 88.6751C86.6499 88.8876 86.7597 89.6589 87.2811 90.1508C87.2811 88.2559 87.2811 86.4392 87.2811 84.6226C87.2454 84.3076 87.3178 83.9899 87.4858 83.723C87.6538 83.4561 87.9072 83.2565 88.2031 83.1581C91.1776 81.8892 94.1412 80.5812 97.1048 79.2844L100.782 77.6746ZM50.4231 79.7651C51.1091 80.0614 51.6854 80.2905 52.2397 80.5644C52.3964 80.6477 52.5706 80.6912 52.7474 80.6912C52.9241 80.6912 53.0983 80.6477 53.255 80.5644C56.1801 79.2676 59.1162 77.9932 62.0359 76.7131L65.2849 75.2877C64.6153 74.9915 64.0391 74.7288 63.4793 74.4772C63.3232 74.3949 63.1501 74.3519 62.9743 74.3519C62.7986 74.3519 62.6255 74.3949 62.4695 74.4772C58.5071 76.238 54.5172 77.9708 50.4231 79.7651ZM60.6694 84.2369C61.306 84.5164 61.8493 84.7176 62.3597 84.9859C62.5508 85.0921 62.7649 85.1477 62.9826 85.1477C63.2002 85.1477 63.4144 85.0921 63.6055 84.9859C66.6569 83.6276 69.7138 82.3029 72.7706 80.9613L75.5147 79.7427C74.922 79.4856 74.4171 79.3067 73.9451 79.044C73.7203 78.9162 73.4671 78.8492 73.2096 78.8492C72.9522 78.8492 72.6991 78.9162 72.4742 79.044C69.4064 80.4135 66.3276 81.7551 63.2542 83.1078L60.6694 84.2369ZM80.3167 49.0215C79.6088 48.7029 79.0215 48.4625 78.4508 48.1718C78.3182 48.1031 78.1715 48.0673 78.0227 48.0673C77.8739 48.0673 77.7272 48.1031 77.5946 48.1718C74.503 49.5357 71.4077 50.8959 68.3088 52.2524L65.4715 53.5045C66.2069 53.8231 66.838 54.0634 67.4581 54.3708C67.5566 54.4189 67.6644 54.4439 67.7737 54.4439C67.8829 54.4439 67.9908 54.4189 68.0893 54.3708L80.3167 49.0215ZM90.5519 53.4933C90.2539 53.3737 89.9626 53.2375 89.6794 53.0852C89.2524 52.8193 88.7629 52.6757 88.2625 52.6698C87.7621 52.6639 87.2694 52.7958 86.8366 53.0517C83.1925 54.7286 79.488 56.3049 75.7122 57.9595C76.4092 58.2725 77.0294 58.5185 77.644 58.8315C77.7579 58.8909 77.8838 58.9218 78.0117 58.9218C78.1396 58.9218 78.2656 58.8909 78.3794 58.8315C79.5703 58.2725 80.7723 57.7694 81.9687 57.244L90.5519 53.4933ZM90.7001 84.2369C91.3916 84.5499 91.9679 84.7959 92.5277 85.0642C92.6788 85.1401 92.845 85.1796 93.0134 85.1796C93.1819 85.1796 93.348 85.1401 93.499 85.0642C97.3407 83.3873 101.182 81.7103 105.024 80.0334C105.172 79.9663 105.386 79.9663 105.441 79.7427C104.848 79.48 104.25 79.2341 103.674 78.9546C103.533 78.8815 103.377 78.8433 103.218 78.8433C103.06 78.8433 102.904 78.8815 102.763 78.9546C100.079 80.1452 97.3846 81.3247 94.701 82.4985L90.7001 84.2369ZM80.4813 79.7651C81.1893 80.0837 81.782 80.3241 82.3528 80.6092C82.484 80.6792 82.63 80.7158 82.7781 80.7158C82.9263 80.7158 83.0722 80.6792 83.2035 80.6092C84.559 79.9943 85.9475 79.4018 87.2866 78.8037L95.3321 75.2877C94.5583 74.9523 93.8613 74.656 93.1698 74.3486C92.9722 74.2592 92.8241 74.3486 92.6649 74.4437L80.4813 79.7651Z" fill="#F3F7F9"/>
<path d="M96.8193 101.202C96.5868 101.203 96.3606 101.125 96.1767 100.98C95.9927 100.835 95.8616 100.632 95.8041 100.403C95.7477 100.174 95.7779 99.9316 95.8887 99.7245C95.9996 99.5173 96.1829 99.3603 96.4022 99.2846C97.187 98.9268 97.9938 98.6082 98.7895 98.2728C100.035 97.7473 101.27 97.2164 102.516 96.6965C103.207 96.4058 103.767 96.5903 103.987 97.166C104.206 97.7418 103.921 98.2392 103.224 98.5355L97.3353 101.029C97.1487 101.084 96.962 101.152 96.8193 101.202Z" fill="#F3F7F9"/>
<path d="M96.8084 97.1548C96.5742 97.1781 96.34 97.1104 96.1528 96.9653C95.9655 96.8202 95.839 96.6083 95.7986 96.3722C95.7395 96.1716 95.7542 95.9559 95.8401 95.7655C95.926 95.5751 96.0771 95.4232 96.265 95.3381C97.5767 94.7289 98.8993 94.1419 100.244 93.6053C100.46 93.5421 100.691 93.5589 100.896 93.6528C101.101 93.7467 101.266 93.9116 101.363 94.1182C101.46 94.3247 101.482 94.5595 101.424 94.7809C101.367 95.0022 101.235 95.1957 101.051 95.3269C99.7115 95.9698 98.3396 96.5455 96.984 97.138C96.9278 97.1585 96.8674 97.1643 96.8084 97.1548Z" fill="#F3F7F9"/>
<defs>
<filter id="filter0_d_137_48" x="4.1" y="5.1" width="147.8" height="147.8" filterUnits="userSpaceOnUse" color-interpolation-filters="sRGB">
<feFlood flood-opacity="0" result="BackgroundImageFix"/>
<feColorMatrix in="SourceAlpha" type="matrix" values="0 0 0 0 0 0 0 0 0 0 0 0 0 0 0 0 0 0 127 0" result="hardAlpha"/>
<feMorphology radius="6" operator="dilate" in="SourceAlpha" result="effect1_dropShadow_137_48"/>
<feOffset/>
<feGaussianBlur stdDeviation="6.45"/>
<feComposite in2="hardAlpha" operator="out"/>
<feColorMatrix type="matrix" values="0 0 0 0 0.917647 0 0 0 0 0.0745098 0 0 0 0 0.239216 0 0 0 0.35 0"/>
<feBlend mode="normal" in2="BackgroundImageFix" result="effect1_dropShadow_137_48"/>
<feBlend mode="normal" in="SourceGraphic" in2="effect1_dropShadow_137_48" result="shape"/>
</filter>
</defs>
</svg>
